<svg width="194" height="195" viewBox="0 0 194 195" fill="none" xmlns="http://www.w3.org/2000/svg">
<path d="M136.717 144.908C137.139 143.853 137.349 142.588 137.771 141.533C140.302 134.994 147.683 133.729 152.534 138.791C155.697 142.166 156.541 146.174 154.643 149.759C152.112 154.4 147.894 156.509 143.044 155.876C140.513 155.454 139.88 153.767 138.826 152.079C138.193 149.759 137.349 147.439 136.717 144.908Z" fill="#DE9903"/>
<path d="M191.76 145.752C191.549 146.806 191.549 147.861 191.338 148.915C191.549 147.861 191.76 146.806 191.76 145.752C191.76 145.541 191.76 145.119 191.549 144.908C190.494 142.377 188.175 141.322 185.644 140.689C185.433 140.478 185.222 140.478 184.8 140.478C182.691 138.58 180.372 136.682 177.208 137.104C174.256 136.049 171.514 135.205 168.351 134.994C165.398 134.783 164.554 133.096 166.452 130.987C170.249 126.979 171.725 121.706 174.256 116.855C175.521 114.324 176.575 111.16 176.786 108.207C176.997 104.41 175.099 101.246 171.514 100.824C168.561 100.403 165.398 100.403 162.446 100.192C158.65 99.9807 155.697 102.09 153.799 104.832C150.214 110.105 147.05 115.589 143.887 121.073C143.254 122.339 142.833 123.815 141.356 123.815C139.669 124.026 139.247 122.128 138.826 121.073C136.506 114.745 131.655 110.105 127.859 104.832C126.594 102.934 124.696 102.301 122.587 102.723C119.845 103.144 117.104 103.566 114.362 104.199C110.988 105.043 109.09 105.887 108.457 109.05C107.403 116.011 107.614 122.972 112.042 128.878C113.94 131.409 115.838 134.362 118.791 136.26C120.9 137.736 121.954 140.268 123.219 142.377C124.274 144.275 123.641 146.173 121.532 146.806C119.424 147.65 117.947 149.337 116.26 150.603C113.729 152.501 112.253 155.876 109.723 157.563C105.926 160.095 105.715 163.68 105.294 167.477C104.872 170.43 106.981 172.75 109.09 173.383C111.831 174.437 115.206 175.703 118.369 174.227C124.063 171.696 129.968 169.586 135.241 166.211C138.615 164.102 138.615 164.313 140.302 167.688C141.146 169.586 142.2 171.696 143.043 173.594C146.418 180.133 149.792 186.46 154.221 192.155C155.275 193.421 156.119 194.686 157.595 194.897C162.446 195.53 167.718 191.523 168.561 186.46C168.983 183.507 169.194 180.554 169.194 177.391C169.405 171.696 167.929 166.422 166.242 161.149C165.609 159.251 166.453 157.774 168.351 157.774C169.405 157.774 170.249 158.196 171.303 158.407C176.786 159.04 182.27 158.829 186.909 155.032C189.862 154.611 191.76 153.134 191.76 149.759C193.869 148.283 193.869 146.806 191.76 145.752ZM154.432 149.759C151.901 154.4 147.683 156.509 142.833 155.876C140.302 155.454 139.669 153.767 138.615 152.079C137.771 149.759 137.139 147.439 136.295 144.908C136.717 143.853 136.928 142.588 137.349 141.533C139.88 134.994 147.261 133.729 152.112 138.791C155.697 142.377 156.33 146.384 154.432 149.759ZM179.528 139.846C179.317 139.213 178.684 139.002 178.263 138.58C178.684 139.002 179.317 139.424 179.528 139.846Z" fill="#417A0E"/>
<path d="M40.7605 128.034C37.1754 127.823 35.0664 125.714 34.6446 122.339C34.4337 120.019 36.3317 117.487 38.8625 116.433C43.0803 114.745 46.4548 115.8 49.6182 118.753C48.7746 121.495 47.9309 124.237 47.0873 126.979C46.6655 126.979 46.2438 127.19 45.822 127.19C44.1349 127.19 42.4477 126.557 40.7605 128.034Z" fill="#DE9903"/>
<path d="M86.9461 116.855C81.4628 112.636 75.7686 108.418 68.3874 107.785C67.122 107.574 65.646 107.574 64.3806 107.363C59.741 106.519 59.5299 106.519 60.7953 102.09C62.4824 96.3949 63.326 90.6999 62.9042 84.583C62.4824 79.7317 60.1626 77.2006 55.523 76.3569C50.8833 75.5132 47.2982 77.2007 44.7675 81.2083C41.3932 86.6923 38.8626 92.3872 37.1754 98.5041C36.7536 99.9806 36.7537 101.668 34.8557 102.934C31.2705 98.7151 26.8415 95.7621 21.991 93.442C17.5622 91.3327 13.5553 89.2234 8.28296 90.2781C1.74529 91.5436 -1.418 97.2387 1.5345 103.356C4.487 109.051 9.12659 113.058 14.3989 116.222C16.2969 117.277 18.1951 118.331 20.0932 119.597C21.1476 120.44 22.2019 121.495 20.7257 122.972C18.4059 125.503 17.3514 128.667 15.4534 131.62C12.0791 136.471 10.1812 142.166 8.7049 147.861C8.07223 150.181 8.9158 152.29 10.8138 153.556C14.8208 156.087 20.5149 155.454 24.5219 152.29C27.2635 150.181 30.2158 148.072 31.4812 144.486C31.6921 143.642 32.3248 143.01 33.3792 143.01C34.8555 142.799 34.8556 144.275 35.0665 145.119C35.6992 147.017 36.3319 148.916 37.1754 150.814C39.0735 155.032 40.5497 159.462 44.7675 162.204C49.618 165.368 55.1012 164.102 57.8428 159.04C59.9517 155.454 60.3736 151.447 60.5845 147.439C60.7954 143.22 60.5844 139.002 60.7953 134.783C61.0062 130.354 61.428 129.721 65.8568 129.721C71.7618 129.721 77.456 129.299 83.361 128.456C86.1026 128.034 87.5786 126.557 88.4222 124.237C89.2658 121.495 89.2659 118.542 86.9461 116.855ZM51.516 118.753C52.1487 118.753 52.9922 118.542 53.6249 118.542C52.9922 118.542 52.3595 118.542 51.516 118.753ZM46.0328 127.19C45.8219 128.245 45.611 129.299 44.9784 129.932C45.4001 129.299 45.611 128.034 46.0328 127.19C44.3457 127.19 42.4476 126.557 40.9713 128.034C37.3862 127.823 35.2774 125.714 34.8557 122.339C34.6448 120.019 36.5428 117.487 39.0735 116.433C43.2914 114.745 46.6656 115.8 49.829 118.753C48.9854 121.495 48.1417 124.237 47.2981 126.979C46.8763 126.979 46.4546 126.979 46.0328 127.19Z" fill="#FFC138"/>
<path d="M107.614 43.0306C108.246 45.3508 110.566 46.1945 111.832 48.3037C113.097 50.8348 112.464 52.7333 111.199 54.8425C109.722 57.1627 107.824 56.5299 105.926 55.8972C105.083 53.577 103.185 51.4676 102.552 48.9365C102.552 48.3037 102.552 47.6709 102.763 46.8272C103.817 45.9835 104.239 44.9289 104.239 43.6633C104.239 43.4524 104.45 43.2415 104.45 43.0306C105.294 43.0306 106.348 43.0306 107.614 43.0306Z" fill="#DE9903"/>
<path d="M148.949 68.3416C148.105 67.4979 147.261 66.8651 146.629 65.8105C144.098 62.0138 141.145 58.6391 136.927 56.9517C136.717 56.7408 136.506 56.7407 136.295 56.7407C135.662 53.155 132.077 53.155 129.968 51.6786C127.437 49.9911 127.437 49.3583 129.968 47.8818C135.241 45.1397 140.091 41.765 144.309 37.7574C150.214 32.0624 149.581 26.5783 143.254 21.727C142.622 21.3052 141.778 20.8832 141.145 20.4614C140.934 20.2505 140.724 20.2505 140.302 20.2505C136.928 17.7194 131.023 17.9303 126.805 20.4614C122.587 22.7816 119.213 26.3674 114.784 28.4767C114.784 29.1095 114.362 29.3204 113.729 29.5313C113.729 28.8985 113.94 28.4767 114.784 28.4767C113.94 26.3674 113.94 24.0472 113.518 21.727C112.886 16.2429 110.777 11.1807 106.559 7.17307C106.348 5.48566 105.083 5.27479 103.817 4.85294C102.974 4.00923 102.13 3.16545 101.076 2.53267C96.2252 -1.05307 91.164 0.00161153 88.6333 5.48569C86.5243 10.1261 86.3134 15.1883 86.5243 20.2505C86.7352 24.2581 87.1568 28.0547 87.3677 32.0623C85.0479 31.6405 83.15 31.2187 81.4629 30.5859C74.2925 28.2658 67.1222 27.0001 60.3736 32.0623C56.9993 34.3825 56.3665 37.9683 58.6863 41.3431C61.2171 45.9835 65.435 49.1474 70.0746 51.6786C73.6598 53.5769 77.8777 54.6315 81.252 56.9517C82.9392 58.0063 84.8371 58.6391 86.946 58.2172C89.4767 59.6937 89.4766 61.592 88.4222 64.1231C86.735 68.5526 84.2045 72.7711 84.6262 77.8333C83.9936 79.0989 83.7825 80.5754 84.2043 81.841C83.3607 86.2704 84.837 89.8562 87.1569 93.4419C87.7895 94.4965 88.6332 95.1293 89.8986 94.7074C91.1639 94.7074 92.6402 94.9184 93.9056 94.9184C95.3818 96.184 96.858 95.5512 98.5451 94.9184C102.552 92.8091 104.872 89.2234 106.137 85.0049C105.505 84.7939 104.872 85.0048 104.239 84.7939C104.872 85.0048 105.505 85.0049 106.137 85.0049C106.348 84.583 106.559 84.1611 106.77 83.7392C108.457 80.9972 109.933 78.4661 111.199 75.5132C111.831 73.8258 112.042 71.5056 114.362 70.6619C116.26 70.0291 117.104 72.1383 118.791 72.5602C120.056 72.982 121.533 73.1929 122.376 74.2475C126.805 79.3098 133.131 79.5207 138.826 82.0518C139.458 82.0518 140.091 82.0518 140.935 82.0518C141.778 82.6846 142.833 83.1064 144.098 82.6846C145.152 83.1064 145.996 83.1064 147.05 82.6846C150.847 82.2627 152.323 81.2082 152.534 78.2552C152.534 74.6694 152.112 70.8727 148.949 68.3416ZM102.552 43.8743C102.763 43.4524 103.185 43.2414 103.607 43.0305C103.185 43.0305 102.763 43.2415 102.552 43.8743ZM106.77 28.8984C106.77 28.0547 106.981 27.2111 106.981 26.3674C106.981 27.2111 106.981 28.0547 106.77 28.8984C106.77 30.5858 106.77 32.0624 107.614 33.7498C107.614 34.1717 107.614 34.5935 107.614 35.0153C107.614 35.2263 107.614 35.6481 107.824 35.6481C107.614 35.4372 107.614 35.2263 107.614 35.0153C107.614 34.5935 107.614 34.1717 107.614 33.7498C106.77 32.0624 106.77 30.5858 106.77 28.8984ZM110.988 54.8424C109.512 57.1626 107.614 56.5299 105.716 55.8971C104.872 53.5769 102.974 51.4675 102.341 48.9364C102.341 48.3036 102.341 47.6709 102.552 46.8272C103.607 45.9835 104.028 44.9288 104.028 43.6633C104.028 43.4523 104.239 43.2414 104.239 43.0305C105.294 43.0305 106.559 43.0306 107.614 42.8196C108.246 45.1398 110.566 45.9835 111.831 48.0928C113.097 50.8348 112.464 52.7332 110.988 54.8424Z" fill="#D31F1B"/>
</svg>
