<svg width="109" height="162" viewBox="0 0 109 162" fill="none" xmlns="http://www.w3.org/2000/svg">
<path d="M20.8475 83.8308C20.8475 83.409 20.6364 82.9871 20.6364 82.7762C20.8473 81.0888 21.2692 79.6123 23.1673 78.9795C24.4326 78.5577 24.4327 77.7139 24.0109 76.6593C23.5891 75.8156 23.1671 74.9719 21.6909 75.3938C20.8473 75.6047 20.2147 75.6047 19.3711 75.8157C18.7384 74.972 18.7385 73.9173 18.9494 73.0736C21.0583 73.0736 23.3781 73.0736 23.5889 69.9098C23.5889 67.5896 22.1128 66.324 18.9494 65.9021C18.7385 65.9021 18.3167 65.9021 17.8949 66.113C17.8949 65.6911 17.8949 65.2693 17.8949 64.8475C19.793 64.8475 18.5276 62.5273 19.1603 62.3163C20.8474 62.5273 20.0037 64.6366 21.6909 64.2147C25.4869 59.3634 22.1128 55.3558 20.0039 51.1373C24.2217 50.0826 24.2217 50.0826 24.2217 45.8641C24.2217 45.6532 24.2217 45.4422 24.2217 45.4422C23.3782 43.5439 23.3782 41.8565 25.2762 40.591C26.9633 39.5363 28.6504 38.6926 30.9702 39.1145C32.4464 39.5363 33.9226 39.5363 35.3989 39.7472C35.8207 40.1691 36.2427 40.591 36.6645 41.0128C37.0862 41.2238 37.508 41.4347 37.7189 41.4347C38.5625 41.4347 39.195 41.8566 39.6167 42.4894C40.2494 44.8095 40.2496 47.9734 44.0457 47.5515C44.4675 48.1843 45.1001 48.8171 45.5218 49.4499C45.7327 49.8717 45.7328 50.7154 46.1546 50.7154C48.8962 51.5591 49.9506 53.2465 49.7397 55.9886C49.7397 56.6213 50.5833 57.2541 50.7942 58.0978C51.0051 58.9415 50.5832 60.418 52.2703 59.9962C53.5357 59.5743 53.9575 58.3087 53.3248 57.0432C52.903 56.1995 51.4267 55.7776 52.2703 54.512C54.1683 51.9809 53.114 48.3952 55.8556 45.8641C52.6922 44.8095 51.2159 41.6456 47.8416 42.0675C48.0525 41.2238 48.2636 40.1692 48.2636 39.3255C49.5289 39.1145 51.0051 38.9036 51.8486 37.2162C50.5833 37.2162 49.7397 37.0052 48.6852 37.0052C48.6852 35.9506 48.6852 35.1069 48.8961 34.0523C51.2159 33.8414 52.6921 33.2085 52.2703 30.2555C51.8485 27.7244 53.1139 25.4043 54.1684 23.0841C54.5902 22.2404 55.6446 21.6076 55.4337 20.553C55.0119 17.6 56.9101 16.5454 59.2299 15.7017C59.6517 17.3891 61.128 18.0219 62.1824 18.8656C63.8696 19.9202 66.4003 19.2874 66.4003 17.3891C66.6112 14.0143 68.5091 13.1706 71.0398 12.5378C72.727 11.905 74.2034 10.8503 75.6796 10.2176C77.3667 11.2722 77.1558 13.5925 79.0538 14.0143C79.4756 14.2253 80.1084 14.4362 79.8975 15.069C77.7885 18.8656 80.3191 20.9749 82.6389 23.0841C83.0607 23.506 83.4826 24.3496 83.2717 24.9824C82.639 26.2479 82.0063 25.1934 81.3736 24.7715C80.9518 24.3497 80.5301 24.7715 80.1083 25.1934C76.1013 29.8338 75.8903 32.7867 79.4755 37.4271C79.0537 39.3254 72.516 38.9036 77.5774 42.7002C78.2101 43.1221 77.3666 44.1767 77.1558 45.0204C76.734 46.7078 76.9448 47.9734 78.4211 49.028C78.8428 49.2389 79.4755 49.8717 79.4755 49.4499C80.3191 46.7079 84.326 47.7624 84.9587 45.0204C85.5914 44.3876 86.0132 43.9658 86.6459 43.333C87.9113 43.5439 89.1766 43.9658 90.0202 42.4894C91.9182 42.2784 93.6054 41.8565 95.0816 40.8018C95.7143 40.5909 96.5579 40.591 97.1906 40.3801C99.2995 40.8019 101.198 41.0129 103.307 41.4347C103.517 41.6457 103.728 41.8565 103.728 42.2784C103.517 42.4893 102.885 42.7002 102.885 42.9111C102.885 44.8094 102.463 46.7078 102.252 48.6061C102.041 50.7154 100.987 52.6138 100.987 54.3012C100.776 57.4651 97.8233 55.7776 96.9797 57.0432C95.9253 58.5197 95.5035 60.418 96.7689 62.1055C98.6669 62.3164 98.245 59.5743 99.2995 59.9962C102.041 60.8399 104.994 58.7306 107.524 60.629C106.681 65.2693 105.204 69.6987 102.463 73.4954C98.8777 78.5576 95.9251 84.0418 91.2855 88.4712C90.6528 89.104 90.0203 89.5258 89.5985 90.3695C88.9658 91.635 88.544 93.1116 90.8638 93.1116C91.4965 93.1116 92.1291 93.1116 92.9727 93.1116C98.4559 93.3225 100.987 95.2209 102.885 100.494C104.361 104.923 104.15 109.142 102.252 113.36C99.0886 120.321 94.66 126.438 89.3876 131.922C83.4826 138.039 77.3667 143.734 70.6181 148.585C69.5637 149.218 68.2984 149.851 67.2439 150.694C64.2914 151.116 61.5497 152.382 59.2299 154.069C57.9645 154.913 56.4882 155.757 55.2229 156.6C53.9575 156.6 52.6923 156.6 51.4269 157.444C49.318 159.131 47.4198 158.921 46.7871 155.968C46.5763 154.913 45.7326 154.702 44.8891 154.702C42.991 154.702 40.8823 154.491 40.0387 157.022C39.406 158.71 36.8752 158.921 36.2425 158.499C33.7118 157.233 30.5484 155.335 30.9702 152.593C31.6029 149.218 28.6503 148.163 28.0176 145.421C27.1741 141.414 23.589 145.21 21.2692 144.367C20.6365 144.156 20.0038 144.156 19.3711 144.156L18.9494 143.945C18.7385 143.312 18.5277 142.679 17.6841 142.468C17.6841 142.257 17.473 141.836 17.473 141.625C18.9493 141.625 20.2148 140.992 20.8475 139.515C21.4802 139.937 22.1126 140.148 22.7453 140.57C23.1671 140.992 23.3782 141.835 24.0109 140.992C23.5891 140.781 23.1671 140.781 22.7453 140.57C24.0107 139.515 25.6979 139.093 26.7523 137.617C26.7523 138.461 26.5415 139.726 27.596 140.148C28.2286 140.57 29.0721 139.937 29.0721 139.304C29.4939 136.984 27.8068 137.828 26.7523 137.617C26.9632 135.508 26.5416 134.242 24.0109 133.398C21.0584 132.555 18.5276 130.867 17.8949 127.071C17.4732 124.75 16.8405 121.797 13.4663 120.954C12.4118 120.743 12.6226 119.266 12.6226 118.212C12.6226 115.892 11.5681 113.571 10.7245 111.462C9.88097 109.986 8.82646 110.408 7.772 111.251C6.50664 112.095 6.92858 112.728 8.19394 113.36C9.03751 113.782 9.67013 114.204 9.45924 115.259C9.03745 116.524 7.98284 116.313 6.92837 115.892C5.66302 115.259 4.39787 115.259 2.92162 115.259C2.71072 114.626 2.71057 113.993 2.49968 113.36C2.71057 112.728 2.92157 112.095 3.13246 111.673C5.24139 109.142 3.13236 109.353 1.44521 109.142C0.812535 107.033 0.812561 105.134 0.812561 103.025C3.13238 104.291 5.03044 105.978 6.50669 107.876C8.19383 107.455 8.40483 105.767 9.2484 105.345C12.8336 103.869 12.2007 100.494 13.0443 97.7519C13.2552 97.1191 13.0443 96.4864 12.2007 96.2755C11.1462 96.0646 10.0919 96.0646 9.45924 96.9083C8.82656 97.541 8.82656 98.3847 9.45924 99.0175C10.0919 99.6503 10.9355 100.494 10.5137 101.549C9.67013 102.181 8.61562 101.97 7.56115 101.97C4.18687 101.97 3.55424 100.916 5.24139 98.1738C6.08496 96.6973 6.29585 95.4317 6.29585 93.9552C6.50674 92.0569 7.35026 91.0024 9.67008 91.0024C13.677 91.0024 17.684 91.2132 21.2692 93.3225C22.5345 93.9553 23.7998 94.1662 24.8543 92.9006C27.1741 90.5804 26.1198 88.0494 25.2762 85.3073C24.6435 82.5653 22.5346 84.0417 20.8475 83.8308ZM73.1487 44.3876C72.0943 48.1843 71.4616 51.5592 69.7745 54.723C67.4547 59.3634 67.6655 60.629 69.1417 64.8475C69.9853 60.2071 72.9378 56.1995 73.1487 51.3482C73.1487 50.2935 72.938 49.028 73.7815 48.6061C76.734 46.4969 74.2032 45.8641 73.1487 44.3876ZM76.1013 134.242C77.3666 134.031 77.7885 134.031 77.9994 133.82C82.2172 130.867 83.6934 125.594 87.7004 122.43C88.1222 122.219 88.1221 121.587 88.1221 120.954C88.1221 120.532 87.9113 119.899 87.4895 119.688C87.0678 119.477 86.4351 119.688 86.2242 119.899C82.4282 124.118 79.2647 128.547 76.1013 134.242ZM82.0064 58.0978C86.2242 58.3087 89.5983 55.9886 90.231 52.1919C90.4419 51.1373 89.5984 50.2936 88.7549 50.9264C86.0132 52.8247 82.0064 53.4574 82.0064 58.0978ZM57.5426 61.0508C56.4882 61.0508 56.2773 61.4726 56.2773 61.8945C56.2773 63.3709 57.1209 63.582 58.1754 63.582C58.8081 63.582 59.6516 63.371 59.4407 62.5273C59.2298 61.4727 58.1753 61.0508 57.5426 61.0508ZM16.4185 101.76C17.2621 101.549 17.473 101.127 17.473 100.705C17.473 99.4394 16.4185 99.2284 15.3641 99.2284C14.7314 99.2284 13.8878 99.4393 14.3096 100.283C14.7314 100.916 15.3641 101.76 16.4185 101.76Z" fill="#376A08"/>
<path d="M85.3806 44.8095C84.748 47.7624 80.741 46.4968 79.8975 49.2389C79.6866 49.6607 79.2648 49.028 78.843 48.8171C77.3668 47.7625 77.1557 46.4969 77.5774 44.8095C77.7883 43.9658 78.6321 42.9112 77.9994 42.4893C72.938 38.6926 79.4757 39.1145 79.8975 37.2162C76.3123 32.5758 76.523 29.6227 80.53 24.9823C80.9518 24.5605 81.3735 24.1387 81.7953 24.5606C82.428 24.9825 83.0607 25.8261 83.6934 24.7715C84.1152 24.1387 83.4826 23.2949 83.0609 22.8731C80.741 20.5529 78.2102 18.4437 80.3192 14.8579C80.7409 14.2251 80.1082 14.0142 79.4755 13.8033C77.5775 13.3814 77.7884 11.0613 76.1013 10.0066C74.625 10.8503 73.1489 11.9049 71.4618 12.3268C68.931 13.1705 67.0329 14.0143 66.822 17.1782C66.822 19.0765 64.2913 19.9201 62.6041 18.6546C61.3388 17.8109 60.0733 17.1781 59.6516 15.4907C57.3317 16.3344 55.4339 17.6 55.8556 20.3421C56.0665 21.3967 55.0121 22.0294 54.5903 22.8731C53.5359 24.9823 52.0596 27.3026 52.6923 30.0446C53.114 32.9976 51.6378 33.6303 49.318 33.8413C51.0052 25.8261 53.7467 18.2328 57.9646 11.0613C59.4408 8.53016 61.5497 6.20992 63.4477 3.88973C65.7676 1.1477 69.5635 0.304017 73.3596 1.14772C71.8833 1.99143 70.8289 3.25698 68.9309 3.25698C66.822 3.46791 65.3459 4.94444 65.135 7.26463C63.6587 7.26463 62.6041 8.10833 61.7605 9.37389C61.3387 10.0067 61.1279 10.6394 61.5496 11.2721C61.9714 12.1159 62.815 12.5377 63.6586 12.3268C64.2913 12.3268 64.9239 11.6941 64.9239 11.0613C64.9239 9.79572 64.9241 8.74106 65.135 7.47551C66.6112 8.10828 67.4547 10.0067 69.5637 8.74114C72.0944 7.26466 74.625 6.20992 77.3666 8.10826C78.2102 8.74104 79.0538 7.68643 79.2647 6.42087C79.4756 4.52254 78.421 5.57725 77.5774 5.57725C74.8358 5.57725 73.3596 3.88976 73.3596 1.14772C80.1082 1.14772 83.2716 4.31159 84.7478 11.2721C86.0132 18.0218 85.5914 24.9824 84.9587 31.732C84.7478 35.1068 84.3261 38.4817 83.6934 41.6456C83.2716 44.1767 84.1153 44.5985 85.3806 44.8095ZM82.0064 41.4347C81.7955 41.2238 81.7953 40.8019 81.5845 40.5909C80.9518 40.38 80.3192 40.5909 80.1083 41.2237C80.1083 41.4346 80.3192 41.8564 80.3192 41.8564C80.9518 42.2783 81.5846 42.2784 82.0064 41.4347Z" fill="#6DB036"/>
<path d="M22.5345 140.57C21.9018 140.148 21.2691 139.937 20.6364 139.515C18.7384 139.515 16.8404 139.515 14.9424 139.515C9.88096 132.977 6.085 125.383 2.92161 117.579C2.71072 116.946 2.71051 115.892 2.71051 115.048C3.97587 115.048 5.45217 115.048 6.71752 115.681C7.56109 116.102 8.8266 116.313 9.24839 115.048C9.67018 113.993 8.8264 113.571 7.98283 113.15C6.71747 112.728 6.29579 111.884 7.56115 111.04C8.61561 110.408 9.67012 109.775 10.5137 111.251C11.5682 113.36 12.4118 115.47 12.4118 118.001C12.4118 119.055 12.2007 120.532 13.2551 120.743C16.6294 121.587 17.2623 124.54 17.6841 126.86C18.3168 130.656 20.8473 132.344 23.7998 133.188C26.5414 133.82 26.7524 135.086 26.5415 137.406C25.6979 138.883 23.7998 139.515 22.5345 140.57Z" fill="#5EA819"/>
<path d="M19.1602 144.367C19.7929 144.367 20.6365 144.367 21.0583 144.577C23.3782 145.421 26.9632 141.624 27.8068 145.632C28.4395 148.163 31.1811 149.429 30.7593 152.804C30.3376 155.546 33.501 157.444 36.0317 158.71C36.6643 159.131 39.1952 158.92 39.8278 157.233C40.6714 154.702 42.7802 154.913 44.6782 154.913C45.5218 154.913 46.3654 155.124 46.5763 156.178C47.209 159.342 48.896 159.553 51.2158 157.655C52.4812 156.6 53.7467 156.811 55.012 156.811C52.2704 159.131 49.7397 162.084 45.311 160.186C42.9912 159.131 40.6712 159.553 38.5623 160.819C36.8751 161.873 35.8207 161.452 34.1336 160.397C28.2286 155.546 22.9563 150.694 19.1602 144.367Z" fill="#6DB036"/>
<path d="M35.3989 39.5364C33.9226 39.3254 32.4464 39.3255 30.9702 38.9036C28.8613 38.2708 26.9633 39.3255 25.2762 40.3801C23.3782 41.6457 23.3782 43.3331 24.2217 45.2314C24.2217 45.4423 24.2217 45.6533 24.2217 45.6533C24.2217 49.8718 24.2217 49.8718 20.0039 50.9264C22.1128 55.145 25.4869 59.1525 21.6909 64.0038C20.0037 64.2147 20.8474 62.3164 19.1603 62.1055C18.3167 62.3164 19.5821 64.6366 17.8949 64.6366C17.2623 58.5198 16.8404 52.4029 18.3166 46.286C19.3711 41.8566 22.3236 39.5364 25.6979 37.4271C29.4939 35.3179 32.6573 37.0053 35.3989 39.5364ZM22.3236 46.4969C22.1128 46.286 22.1129 45.8642 21.902 45.6533C21.6911 45.6533 21.4801 45.8642 21.0583 45.8642C21.2692 46.0751 21.2691 46.497 21.48 46.7079C21.9018 46.9188 22.1128 46.9188 22.3236 46.4969Z" fill="#6DB036"/>
<path d="M107.735 60.629C105.204 58.7306 102.252 60.8399 99.5103 59.9962C98.4559 59.5743 98.8778 62.3164 96.9797 62.1055C95.9253 60.418 96.1361 58.5197 97.1906 57.0432C98.0341 55.7776 100.987 57.676 101.198 54.3012C101.408 52.4028 102.252 50.5045 102.463 48.6061C102.674 46.7078 103.096 44.8094 103.096 42.9111C103.096 42.7002 103.517 42.4893 103.939 42.2784C105.837 42.7002 106.681 43.9658 107.102 45.6532C108.79 50.5045 109.211 55.5667 107.735 60.629Z" fill="#6DB036"/>
<path d="M6.50674 93.9553C6.50674 95.4317 6.29585 96.6973 5.45228 98.1738C3.76513 100.916 4.39776 101.97 7.77204 101.97C8.82651 101.97 9.67013 102.181 10.7246 101.549C10.9355 100.494 10.3028 99.6503 9.67013 99.0175C9.03745 98.3848 8.82656 97.5411 9.67013 96.9083C10.5137 96.0646 11.3574 96.0646 12.4118 96.2755C13.2554 96.4865 13.4661 97.1191 13.2552 97.7519C12.4116 100.494 13.0445 103.869 9.45929 105.345C8.40483 105.767 8.19383 107.244 6.71758 107.876C5.24133 105.978 3.3434 104.291 1.02358 103.025C0.601795 100.916 0.390748 99.0175 1.6561 97.1192C1.867 97.1192 2.07804 96.9083 2.07804 96.9083C2.07804 96.6974 2.07804 96.4864 2.07804 96.0645C1.86715 95.2208 2.0781 94.3771 2.92167 93.9553C3.76524 93.9553 5.03049 93.9553 6.50674 93.9553Z" fill="#5EA819"/>
<path d="M6.50668 93.9553C5.24132 93.9553 3.97591 93.9553 2.49966 93.9553C2.92145 91.6351 4.39775 90.5805 6.50668 90.1586C10.7245 89.3149 14.9424 87.8384 19.1602 90.7914C20.8474 91.846 22.1128 90.7914 21.9019 88.6821C21.6911 86.9947 20.6365 85.5183 21.0583 83.8309C22.7455 84.0418 24.8543 82.7762 25.487 85.5182C26.3306 88.0493 27.3852 90.5805 25.0653 93.1117C24.0109 94.3772 22.7454 94.1662 21.48 93.5334C17.8948 91.6351 13.8879 91.4242 9.88091 91.2133C7.56109 91.0023 6.71757 92.0569 6.50668 93.9553ZM24.6434 89.9478C24.6434 89.5259 24.6436 88.8931 24.0109 88.8931C24.0109 88.8931 23.5889 89.5258 23.5889 89.7368C23.5889 90.1586 23.8 91.0024 24.0109 91.0024C24.6436 91.0024 24.4325 90.3696 24.6434 89.9478Z" fill="#6DB036"/>
<path d="M48.0524 42.2783C51.4267 41.8565 52.9031 45.0204 56.0665 46.075C53.3249 48.3952 54.3794 51.981 52.4814 54.723C51.6378 55.7777 52.9032 56.4105 53.5359 57.2542C54.3794 58.5197 53.7467 59.7852 52.4814 60.2071C50.7942 60.8398 51.4268 59.1525 51.005 58.3088C50.7941 57.4651 49.7396 56.8323 49.9505 56.1995C49.9505 53.4575 48.8962 51.7701 46.3654 50.9264C46.1546 50.9264 45.9436 50.0826 45.7327 49.6608C46.3653 49.2389 46.9981 48.817 47.4199 48.6061C48.4744 48.1843 48.2635 47.9733 47.4199 47.5515C47.8417 45.6532 48.0524 43.9657 48.0524 42.2783Z" fill="#6DB036"/>
<path d="M17.8949 65.9021C18.3167 65.9021 18.5276 65.6912 18.9494 65.6912C22.1127 66.1131 23.5889 67.3786 23.5889 69.6987C23.5889 72.8626 21.2692 72.6517 18.9494 72.8626C17.684 70.5424 17.4731 68.2223 17.8949 65.9021Z" fill="#6DB036"/>
<path d="M19.3711 75.6046C20.2147 75.3937 21.0582 75.3938 21.6909 75.1829C22.9562 74.761 23.3782 75.6047 24.0109 76.4484C24.6436 77.503 24.4326 78.3466 23.1673 78.7685C21.2692 79.4013 20.8473 80.8779 20.6364 82.5653C19.1601 80.456 19.582 77.9248 19.3711 75.6046Z" fill="#6DB036"/>
<path d="M59.019 154.069C61.5497 152.382 64.0803 151.116 67.0328 150.694C65.1347 153.436 61.9715 153.858 59.019 154.069Z" fill="#6DB036"/>
<path d="M44.2565 47.5515C40.4605 47.7625 40.4605 44.8096 39.8279 42.4894C42.5695 42.9112 42.5694 46.075 44.2565 47.5515Z" fill="#6DB036"/>
<path d="M95.2925 40.591C93.8162 41.4347 91.9181 42.0674 90.231 42.2784C91.9181 39.3254 92.34 39.3254 95.2925 40.591Z" fill="#6DB036"/>
<path d="M14.9424 139.515C16.8404 139.515 18.7383 139.515 20.6364 139.515C20.0037 140.992 18.7384 141.625 17.2622 141.625C15.9968 141.414 15.3642 140.359 14.9424 139.515Z" fill="#6DB036"/>
<path d="M103.517 41.4348C101.408 41.0129 99.5103 40.802 97.4014 40.3801C99.7212 38.9037 101.83 39.1146 103.517 41.4348Z" fill="#6DB036"/>
<path d="M1.44516 109.142C2.92141 109.353 5.24133 108.931 3.13241 111.673C2.71062 112.095 2.71052 112.939 2.49963 113.36C0.812485 112.095 1.23427 110.618 1.44516 109.142Z" fill="#5EA819"/>
<path d="M49.1069 37.2162C49.9504 37.2162 51.0049 37.4271 52.2702 37.4271C51.2158 38.9036 49.9505 39.3254 48.6852 39.5364C48.2634 38.4817 48.6851 37.849 49.1069 37.2162Z" fill="#6DB036"/>
<path d="M90.4421 42.2783C89.5985 43.7548 88.333 43.333 87.0676 43.1221C87.9112 42.0674 89.1767 42.2783 90.4421 42.2783Z" fill="#6DB036"/>
<path d="M17.473 142.468C18.3166 142.679 18.5277 143.312 18.7386 143.945C17.895 143.945 17.473 143.312 17.473 142.468Z" fill="#6DB036"/>
<path d="M1.65606 96.0645C1.65606 96.2754 1.65606 96.4864 1.65606 96.9083C1.65606 96.9083 1.44527 97.1191 1.23438 97.1191C1.44527 96.6973 1.65606 96.2754 1.65606 96.0645Z" fill="#6DB036"/>
<path d="M37.9298 41.2237C37.508 41.0128 37.0862 40.8018 36.8753 40.8018C37.2971 40.5909 37.508 40.8019 37.9298 41.2237Z" fill="#6DB036"/>
<path d="M47.6308 47.3406C48.4743 47.7625 48.6852 48.1843 47.6308 48.3953C47.6308 47.9734 47.6308 47.5516 47.6308 47.3406Z" fill="#34600A"/>
<path d="M73.1487 44.3876C74.4141 45.8641 76.9448 46.4969 73.9923 48.3953C73.1488 49.0281 73.3596 50.2936 73.3596 51.1373C73.3596 55.9886 70.1964 59.9962 69.3528 64.6366C67.6657 60.4181 67.4546 59.1524 69.9853 54.5121C71.4616 51.5591 72.0943 48.1843 73.1487 44.3876Z" fill="#6DB036"/>
<path d="M76.1013 134.242C79.0538 128.547 82.4282 124.118 86.2242 120.11C86.4351 119.899 87.2787 119.688 87.4895 119.899C87.9113 120.11 88.1221 120.743 88.1221 121.165C88.1221 121.587 87.9113 122.219 87.7004 122.641C83.6934 125.805 82.2172 131.078 77.9994 134.031C77.7885 134.031 77.5775 134.031 76.1013 134.242Z" fill="#6DB036"/>
<path d="M82.0064 58.0978C82.0064 53.6684 86.0132 52.8248 88.7548 50.9264C89.5984 50.2937 90.4419 51.1373 90.231 52.1919C89.5983 55.9886 86.2242 58.3088 82.0064 58.0978Z" fill="#6DB036"/>
<path d="M57.5427 61.0509C58.1754 61.2618 59.2299 61.4728 59.4408 62.5274C59.6517 63.3711 58.8082 63.582 58.1755 63.582C57.121 63.582 56.0665 63.371 56.2774 61.8945C56.2774 61.4727 56.4883 60.84 57.5427 61.0509Z" fill="#6DB036"/>
<path d="M16.4184 101.76C15.5748 101.76 14.7313 101.127 14.3095 100.283C13.8877 99.4394 14.5204 99.2284 15.3639 99.2284C16.4184 99.2284 17.262 99.4394 17.4729 100.705C17.4729 101.127 17.0511 101.549 16.4184 101.76Z" fill="#5EA819"/>
<path d="M26.5415 137.406C27.596 137.617 29.494 136.984 28.8613 139.094C28.6504 139.726 28.0178 140.148 27.3851 139.937C26.3307 139.515 26.7524 138.461 26.5415 137.406Z" fill="#5EA819"/>
<path d="M22.5345 140.57C22.9563 140.781 23.378 140.781 23.7998 140.992C23.1671 141.835 22.9563 140.992 22.5345 140.57Z" fill="#5EA819"/>
<path d="M73.3596 1.78052C73.3596 4.52256 74.8358 6.21004 77.5774 6.21004C78.421 6.21004 79.4755 5.36626 79.2647 7.05367C79.0538 8.31923 78.2101 9.37396 77.3666 8.74118C74.4141 6.84285 72.0944 7.89745 69.5636 9.37393C67.4547 10.6395 66.6112 8.53015 65.1349 8.1083C65.3458 5.78811 66.8219 4.31171 68.9309 4.10078C70.8289 3.88986 71.8833 2.4133 73.3596 1.78052Z" fill="#45850B"/>
<path d="M65.135 7.89743C65.135 9.16299 65.1348 10.2176 64.9239 11.4832C64.9239 12.3269 64.2913 12.7487 63.6586 12.7487C62.815 12.9596 61.9714 12.5378 61.5497 11.6941C61.1279 11.0613 61.3387 10.4286 61.7605 9.79582C62.6041 8.74119 63.6587 7.89743 65.135 7.89743Z" fill="#45850B"/>
<path d="M82.0065 41.4347C81.7956 42.0675 81.1628 42.2784 80.5301 42.0675C80.3192 42.0675 80.1083 41.4347 80.3192 41.4347C80.5301 40.8019 81.1627 40.38 81.7954 40.8018C81.7954 40.8018 81.7956 41.2238 82.0065 41.4347Z" fill="#45850B"/>
<path d="M22.3236 46.4969C22.1127 46.9187 21.9017 46.9188 21.6908 46.7079C21.48 46.497 21.4801 46.286 21.2692 45.8641C21.4801 45.8641 21.9019 45.6533 22.1128 45.6533C22.1128 45.8642 22.3236 46.286 22.3236 46.4969Z" fill="#45850B"/>
<path d="M24.6434 89.9478C24.6434 90.3696 24.6436 91.0024 24.0109 91.0024C23.8 91.0024 23.589 90.1586 23.589 89.7368C23.589 89.5258 23.8 88.8931 24.0109 88.8931C24.6436 88.8931 24.6434 89.5259 24.6434 89.9478Z" fill="#45850B"/>
</svg>
