<svg width="177" height="269" viewBox="0 0 177 269" fill="none" xmlns="http://www.w3.org/2000/svg">
<path d="M34.2548 65.9464C34.4657 66.3683 34.4655 66.7901 34.6764 67.4229C35.0982 67.6338 35.3091 67.8447 35.7309 68.2665C44.3775 71.8523 47.9627 80.2894 52.6023 87.4609C54.5004 90.4139 53.0243 93.3668 49.8609 94.6323C48.5955 95.2651 47.5411 94.4215 46.6975 93.7887C44.7994 92.3122 42.9013 90.4138 41.0032 88.7264C39.7379 87.6718 38.6835 87.8828 38.6835 89.5702C38.4726 95.2652 38.6835 100.96 38.6835 106.655C38.6835 107.921 39.5271 108.343 40.5815 108.764C42.6905 109.608 44.1666 111.296 45.2211 113.194C47.9627 117.623 50.4934 122.053 52.6023 126.904C54.0786 130.279 50.7045 130.701 49.65 132.388C48.3847 134.286 46.9084 132.81 45.643 131.966C43.5341 130.701 42.6906 128.381 41.2143 126.693C40.3707 125.638 40.3707 124.162 38.2618 123.74C37.6291 126.904 37.2072 129.857 36.5745 133.021C35.9418 136.396 35.7311 139.982 34.8875 143.356C34.4658 145.044 34.8875 145.887 36.1528 147.153C40.1598 151.793 44.1668 156.645 46.6975 162.34C47.3302 163.816 48.3846 165.504 46.9083 166.98C45.2212 168.667 41.4251 169.089 39.7379 168.035C36.5745 165.715 34.0439 162.761 31.935 159.809C30.2478 160.441 30.037 161.918 29.6152 163.183C28.3499 166.98 27.0844 170.777 26.0299 174.784C25.1863 177.315 25.3972 179.636 27.0844 181.956C29.826 185.963 31.5133 190.604 32.7786 195.244C33.6222 198.83 32.9895 200.095 29.8261 201.572C27.7171 202.627 26.4517 201.994 24.9754 200.306C23.2883 198.408 22.6558 195.877 20.125 194.189C18.8597 197.564 17.8051 200.517 16.5397 203.681C14.6417 209.165 12.322 214.649 9.79126 219.922C8.5259 222.454 6.41702 223.086 4.3081 223.93C2.41006 224.563 0.933711 222.665 0.511925 220.766C-0.964324 213.806 0.933659 207.267 3.88616 200.939C4.51883 199.674 5.78419 199.252 7.04955 198.619C9.15847 197.775 11.2675 196.721 12.111 194.611C12.7437 192.924 14.6416 191.026 13.5872 189.549C12.3218 187.651 10.2131 189.549 8.52595 190.182C6.62792 190.815 4.94072 191.447 3.46447 189.76C1.98823 188.284 1.98807 186.385 3.04253 184.698C3.67521 183.432 4.30799 181.956 4.72978 180.479C5.36246 178.581 6.41682 177.737 8.31485 177.737C10.2129 177.526 12.3219 176.472 14.22 176.683C17.5942 176.894 18.8596 174.784 19.2814 172.253C20.125 166.98 22.2338 162.34 24.9754 157.699C25.3972 157.066 25.6081 156.223 24.9754 155.168C22.6556 155.168 20.5467 156.223 18.4378 157.067C14.8526 158.332 12.322 157.699 10.8457 155.168C9.36947 152.637 10.0022 150.528 12.7438 147.575C14.6418 145.677 16.9616 145.044 19.4923 144.411C20.5467 144.2 21.6012 144.2 22.4448 143.989C27.5062 143.356 27.0843 143.145 28.3497 138.083C29.4041 133.654 29.1934 129.013 30.6697 124.795C30.8806 123.951 31.0913 123.107 30.4586 122.475C29.615 122.053 28.7715 122.475 28.1388 122.896C25.819 124.373 23.4993 125.638 21.3904 127.115C20.5468 127.748 19.7031 127.959 18.6486 127.959C15.4853 128.17 14.009 126.482 15.4853 123.74C18.6486 117.623 22.023 111.506 28.9824 109.397C31.5132 108.553 32.3567 107.499 32.3567 104.757C32.3567 99.4837 32.5675 93.9996 32.5675 88.5155C32.5675 86.1953 32.9893 83.8751 31.513 81.344C28.1388 84.7188 24.5536 86.8281 20.7576 88.9374C19.0704 89.992 17.5943 90.4138 15.9072 88.7264C14.2201 87.039 14.4307 85.5625 15.6961 83.8751C18.2268 80.9222 19.9142 77.1254 23.2884 74.5943C24.132 74.5943 24.7645 74.1725 24.9754 73.3288C26.6626 72.696 28.3497 72.2741 29.1933 70.3758C30.6695 68.8993 30.6697 67.212 30.6697 65.3137C31.0915 65.1027 31.935 64.8918 31.935 64.6809C31.935 61.517 32.7786 62.7825 33.8331 64.259C33.4113 65.3137 33.833 65.7355 34.2548 65.9464Z" fill="#407B08"/>
<path d="M34.2549 65.9465C33.8331 65.5246 33.4113 65.3137 33.2004 64.8918C32.146 63.4154 31.3023 62.1498 31.3023 65.3137C31.3023 65.5246 30.4588 65.7355 30.037 65.9465C28.5608 64.6809 28.1391 62.9935 27.7173 61.0952C26.241 55.4002 24.7648 49.9161 22.445 44.643C22.0232 43.7993 21.8123 42.9555 22.445 42.3227C23.2885 41.6899 23.9212 42.1119 24.7647 42.5337C25.8192 43.3774 26.8738 44.0102 27.5064 45.2757C30.4589 51.3926 32.9896 57.9313 34.8877 64.47C35.0986 65.3137 34.6767 65.7355 34.2549 65.9465Z" fill="#2B5A05"/>
<path d="M28.5609 71.0087C27.9282 72.9071 26.0302 73.3288 24.343 73.9616C24.7648 71.6414 26.6628 71.4306 28.5609 71.0087Z" fill="#2B5A05"/>
<path d="M24.343 73.9616C24.1321 74.8053 23.4993 75.2272 22.6558 75.2272C22.8667 74.3835 23.4994 74.1725 24.343 73.9616Z" fill="#2B5A05"/>
<path d="M35.5202 68.0557C35.0984 67.8447 34.8875 67.6338 34.4657 67.2119C35.0984 67.4228 35.5202 67.6338 35.5202 68.0557Z" fill="#2B5A05"/>
<path d="M82.4289 105.493C81.7962 104.649 81.3744 103.595 82.0071 102.54C83.0616 102.962 84.327 101.696 85.3815 102.54C86.0141 102.962 86.4359 103.384 87.0686 102.751C87.7013 101.907 87.2794 101.064 86.6468 100.642C83.9052 98.9543 81.5853 97.056 80.32 93.8921C79.8982 93.0484 78.8437 92.4156 77.7892 92.2047C76.313 89.2517 76.1021 86.0878 76.313 82.9239C76.5239 78.2835 78.4219 75.7525 83.0616 74.6978C90.021 72.7995 96.137 74.6978 101.831 78.9164C105.838 81.8693 108.58 85.8769 111.743 89.4627C112.376 90.3064 112.798 91.15 113.852 91.3609C115.328 90.3063 115.539 88.8298 116.172 87.5643C119.335 79.5491 122.288 71.5339 125.451 63.7297C126.295 61.4095 125.873 59.722 124.818 58.0346C121.022 50.8631 118.281 43.4808 115.961 35.6765C114.063 29.5597 114.274 23.4428 115.117 17.3259C115.75 13.7402 117.226 10.1544 121.444 9.09975C126.927 7.8342 131.567 9.52163 134.941 13.7402C136.207 15.2166 137.894 17.115 138.105 19.4352C138.105 20.068 138.526 20.7007 138.948 21.3334C139.37 22.1771 140.214 23.0209 141.268 22.5991C142.322 22.3881 142.322 21.3335 142.322 20.4898C141.901 15.0057 145.275 10.9981 147.384 6.56861C148.438 4.24843 150.336 2.13927 152.867 0.873711C158.561 -1.6574 163.623 1.50646 164.044 7.83425C164.255 12.8965 162.357 16.904 160.67 21.3334C160.248 22.1771 159.616 23.021 159.405 24.0756C158.561 26.3958 159.405 27.4503 161.725 27.0285C164.466 26.3957 166.997 25.763 169.739 26.1848C173.746 26.6067 175.854 28.294 176.276 32.3016C176.487 34.4109 176.276 36.7311 175.222 38.6294C172.691 43.9026 169.949 49.1757 165.732 53.3942C157.928 60.9876 149.282 66.6826 137.683 65.417C135.152 65.2061 134.519 66.0499 133.465 68.3701C128.825 79.1273 125.24 90.5173 121.022 101.274C120.6 102.118 120.39 103.173 121.022 104.649C124.607 100.009 129.669 97.4778 133.043 93.0483C133.887 91.7828 134.941 91.361 136.417 91.1501C137.472 90.9391 138.526 90.7282 139.159 90.0954C143.377 86.7206 148.017 87.7753 152.445 88.408C156.03 89.0408 159.194 92.6265 158.772 96.2122C158.561 98.5324 158.35 101.064 157.296 102.962C154.132 108.235 152.445 114.563 146.962 118.149C146.118 121.945 142.955 124.054 140.635 126.796C137.894 129.96 134.519 132.491 130.723 134.179C129.458 134.812 129.247 132.07 127.56 133.757C126.295 135.023 126.927 136.077 126.927 137.343C124.818 137.132 122.288 135.023 121.022 138.608C120.6 138.819 120.39 139.03 119.968 139.241C118.913 139.03 118.07 139.03 117.015 138.819C113.852 138.187 113.852 138.186 112.798 141.561C112.165 143.46 111.532 145.78 109.634 146.624C107.314 145.358 106.26 143.038 104.573 141.35C104.362 140.929 104.151 140.507 104.151 140.085C106.26 135.445 106.26 135.445 102.042 132.913C100.566 132.07 98.8785 131.648 99.3003 129.328C99.5112 128.484 99.0894 127.851 98.4567 127.64C94.6606 126.375 96.9805 120.258 92.1299 120.047C92.1299 120.047 91.9191 119.414 91.9191 119.203C92.13 116.672 91.0756 114.563 89.5993 112.665C88.334 113.297 88.9666 114.985 87.7012 115.407C86.6468 114.563 86.2249 113.508 85.8031 112.243C85.8031 111.821 85.8031 111.188 85.8031 110.766C85.8031 108.868 89.5993 108.657 88.123 106.548C86.4359 104.227 84.1161 106.126 82.4289 105.493Z" fill="#407B08"/>
<path d="M88.3339 154.217C88.5448 154.428 88.5448 154.428 88.5448 154.85C88.334 159.701 92.3408 162.443 94.2388 166.029C94.4497 166.662 95.7152 166.24 96.5587 166.029C95.9261 167.927 96.5588 169.404 98.035 170.88C102.042 166.662 102.253 166.662 107.314 167.716C108.58 167.927 109.634 167.927 110.267 166.872C112.165 164.13 114.906 162.865 117.437 160.967C119.124 159.912 122.499 160.334 122.499 156.959C123.131 156.959 123.553 156.537 123.553 155.904C126.505 155.693 124.186 158.857 126.927 160.334C125.451 156.326 128.614 155.483 129.669 153.373C130.302 153.162 130.723 152.951 131.356 152.74C133.676 153.162 135.574 152.108 137.472 151.475C141.268 150.842 144.853 151.897 148.016 153.584C153.289 156.115 155.187 164.341 152.234 169.825C149.915 173.833 146.54 176.575 143.166 179.528C138.315 179.106 138.105 179.317 137.683 183.536C136.839 183.325 135.996 183.325 135.152 183.114C132.41 182.27 130.723 182.27 131.356 185.856C131.567 186.699 130.934 187.754 130.091 187.754C126.084 187.965 123.342 190.074 121.022 193.027C120.39 193.871 118.913 193.871 117.859 194.293C117.015 194.504 116.383 195.137 116.172 195.98C115.75 196.824 115.117 197.246 114.063 197.246C111.321 197.246 108.369 196.191 105.838 198.933C104.994 199.777 103.096 199.355 103.518 197.879C104.573 194.082 100.987 194.715 99.7221 193.449C99.0895 193.027 98.4568 192.816 98.035 193.449C97.4023 194.082 97.1914 194.926 97.6132 195.769C98.035 196.824 98.8785 197.246 99.933 197.457C102.042 197.879 102.675 199.144 102.464 201.042C101.831 201.253 101.198 201.253 100.566 201.464C99.0894 201.464 98.0349 202.097 97.4022 203.363C96.3478 205.683 94.6607 205.261 92.9735 204.206C92.13 203.785 91.2864 202.941 90.6538 202.519C90.8647 201.886 91.0755 201.253 91.2864 200.621C92.13 200.621 92.7626 200.41 93.6062 200.41C94.028 200.832 94.2389 201.043 94.6607 201.464C94.8715 201.886 95.0825 202.097 95.0825 201.675C95.0825 201.675 94.8715 201.464 94.6607 201.464C94.6607 201.043 94.6607 200.832 94.6607 200.41C93.3953 197.035 92.9735 193.027 87.7012 193.871C87.0685 193.871 86.4358 193.449 85.8031 193.238C84.5378 192.816 83.6942 191.762 82.6397 190.918C82.4289 189.863 83.0616 188.176 82.0071 187.754C79.4764 186.278 77.3674 184.379 75.2585 182.27C74.8367 182.059 73.9932 182.27 73.3605 182.27C74.8368 180.372 74.2041 179.106 72.5169 177.63C70.408 175.731 67.4555 174.255 67.8773 170.458C67.8773 169.825 66.612 168.138 65.9793 168.771C63.8704 170.247 63.0267 167.505 61.5505 167.927C61.5505 166.451 61.5506 165.185 59.6525 164.974C56.9109 159.701 54.8019 154.217 53.5366 148.311C51.6385 140.718 54.8019 136.077 62.6049 135.655C64.9248 136.921 67.8773 136.71 69.7753 138.819C70.8298 139.874 70.408 141.35 70.8298 142.616C71.8843 144.936 73.3605 141.561 74.6259 142.827C76.9457 145.147 80.32 145.991 82.2181 148.944C83.0616 151.475 85.5923 153.162 88.3339 154.217ZM92.3409 192.184C92.9736 191.973 93.1844 191.762 93.1844 191.129C93.1844 190.074 92.5517 189.653 91.4973 189.653C91.0755 189.653 90.4429 190.074 90.6538 190.707C90.8647 191.551 91.4973 192.184 92.3409 192.184ZM102.042 170.458C102.253 170.247 102.464 170.036 102.464 169.615C102.464 169.404 102.253 169.193 102.042 168.771C101.831 168.982 101.62 169.193 101.62 169.615C101.62 170.036 101.831 170.247 102.042 170.458Z" fill="#418008"/>
<path d="M90.6537 202.73C91.4973 203.363 92.1299 203.996 92.9735 204.417C94.6606 205.472 96.3477 206.105 97.4022 203.574C98.0349 202.308 98.8784 201.464 100.566 201.675C97.6131 210.112 96.5587 218.971 96.1369 227.83C95.926 237.744 95.5042 247.657 95.0824 257.571C95.0824 259.68 95.0824 262 95.0824 264.109C95.0824 265.375 94.8716 266.43 94.8716 267.695C94.6607 270.015 92.7625 270.859 91.0754 271.07C89.1774 271.281 88.9665 269.172 88.7556 267.906C88.123 264.742 87.9121 261.578 87.4903 258.414C86.225 246.392 85.3813 234.369 86.8575 222.346C87.7011 216.44 88.5447 210.323 89.3883 204.417C89.8101 203.785 90.2319 203.152 90.6537 202.73Z" fill="#2B5A05"/>
<path d="M122.499 156.959C122.499 160.334 119.124 159.701 117.437 160.967C114.906 162.654 112.165 164.13 110.267 166.872C109.423 167.927 108.58 168.138 107.314 167.716C102.253 166.662 102.253 166.662 98.035 170.88C96.5588 169.615 96.137 167.927 96.5588 166.029C97.6132 166.451 98.8786 166.872 99.0895 164.974C99.5113 162.654 99.7221 160.123 101.62 158.014C102.885 158.225 103.307 158.646 102.886 159.912C102.464 161.177 101.831 162.654 103.518 163.498C104.784 162.232 104.151 160.756 104.362 159.49C104.573 158.224 105.205 157.803 106.26 157.803C106.471 159.068 106.049 160.545 106.892 161.81C106.892 159.912 108.158 158.435 108.158 156.748C108.158 155.061 108.158 153.373 108.158 151.686C109.001 151.475 110.056 151.475 109.845 150.42C109.423 149.155 108.58 147.889 107.103 148.1C105.838 148.311 106.26 149.788 106.26 150.631C104.362 150.42 103.94 153.162 101.831 152.74C102.464 148.733 103.096 144.514 103.94 140.507C105.627 142.194 106.682 144.514 109.001 145.78C111.11 144.936 111.532 142.827 112.165 140.718C113.219 137.343 113.219 137.343 116.383 137.976C117.437 138.187 118.281 138.186 119.335 138.397C118.913 138.819 118.702 139.452 118.281 139.452C113.852 140.296 112.797 143.46 112.165 147.256C111.532 151.897 110.689 156.326 109.845 161.388C112.165 161.177 114.063 160.756 115.539 159.279C117.648 157.803 120.179 157.381 122.499 156.959Z" fill="#2B5A05"/>
<path d="M87.2794 114.774C88.5448 114.352 88.123 112.664 89.1775 112.032C90.6538 114.141 91.7082 116.039 91.4973 118.57C91.4973 118.781 91.4974 119.414 91.7082 119.414C96.5588 119.625 94.4498 125.742 98.035 127.008C98.6677 127.218 99.0894 127.851 98.8785 128.695C98.2458 131.015 100.144 131.437 101.62 132.281C106.049 134.812 106.049 134.812 103.729 139.452C102.885 139.452 102.042 139.241 101.62 138.397C96.5587 130.804 91.0755 123.422 87.2794 114.774Z" fill="#2B5A05"/>
<path d="M88.3339 154.217C85.5923 153.162 83.0615 151.475 81.5853 149.366C79.4764 146.413 76.1021 145.569 73.9932 143.249C72.7278 141.983 71.2516 145.358 70.1972 143.038C69.7754 141.772 70.1972 140.507 69.1427 139.241C67.0338 137.132 64.2921 137.343 61.9723 136.077C65.5575 134.39 68.51 136.499 71.2516 138.187C77.7893 141.772 82.6399 147.256 87.4904 152.529C88.1231 152.74 88.123 153.584 88.3339 154.217Z" fill="#2B5A05"/>
<path d="M116.594 196.191C116.804 195.348 117.437 194.715 118.281 194.504C119.335 194.082 121.022 194.082 121.444 193.238C123.764 190.074 126.295 187.965 130.512 187.965C131.145 187.965 131.989 186.911 131.778 186.067C131.145 182.481 133.043 182.481 135.574 183.325C136.417 183.536 137.261 183.536 138.105 183.747C137.472 186.278 134.941 186.278 133.254 187.754C129.458 191.129 124.818 193.027 120.811 195.769C119.546 196.402 118.07 196.191 116.594 196.191Z" fill="#2B5A05"/>
<path d="M61.1288 168.349C62.8159 167.927 63.6594 170.669 65.5575 169.193C66.1902 168.56 67.6665 170.247 67.4556 170.88C67.0338 174.677 69.9862 176.153 72.0951 178.052C73.7822 179.528 74.415 180.794 72.9387 182.692C67.4555 179.106 64.2922 173.622 61.1288 168.349Z" fill="#2B5A05"/>
<path d="M108.58 152.108C108.58 153.795 108.58 155.483 108.58 157.17C108.158 157.17 107.947 157.17 107.525 157.17C107.103 157.592 106.892 157.803 106.471 158.225C105.416 158.435 104.573 158.857 104.573 159.912C104.362 161.178 104.994 162.443 103.729 163.92C102.042 162.865 102.675 161.599 103.096 160.334C103.518 159.068 103.096 158.435 101.831 158.435C101.409 156.748 101.62 155.061 102.253 153.373C104.151 153.795 104.783 151.053 106.682 151.264C107.314 151.475 107.947 151.686 108.58 152.108Z" fill="#418008"/>
<path d="M102.464 201.254C102.675 199.355 102.042 198.09 99.933 197.668C98.8785 197.457 98.035 196.824 97.6132 195.98C97.4023 195.137 97.4023 194.293 98.035 193.66C98.6677 193.027 99.3003 193.238 99.7221 193.66C101.198 194.926 104.784 194.293 103.518 198.09C103.096 199.566 105.205 199.988 105.838 199.144C108.369 196.402 111.321 197.457 114.063 197.457C110.899 199.988 106.682 200.832 102.464 201.254Z" fill="#2B5A05"/>
<path d="M77.7892 92.4156C78.8437 92.6265 79.8982 93.0483 80.32 94.103C81.5853 97.2669 83.9052 99.1652 86.6468 100.853C87.4903 101.274 87.7013 102.118 87.0686 102.962C86.6468 103.595 86.0141 103.173 85.3815 102.751C84.327 101.907 83.0616 103.173 82.0071 102.751C78.8437 99.7981 78.8437 95.7904 77.7892 92.4156Z" fill="#2B5A05"/>
<path d="M93.3953 200.621C92.5517 200.621 91.919 200.832 91.0754 200.832C90.8645 198.933 90.2319 197.457 88.123 196.613C86.8576 195.98 85.1705 195.558 85.3814 193.449C86.0141 193.66 86.6467 194.082 87.2794 194.082C92.5517 193.238 92.9734 197.246 94.2388 200.621C94.0279 200.621 93.8171 200.621 93.3953 200.621Z" fill="#2B5A05"/>
<path d="M96.7696 166.029C95.926 166.24 94.6607 166.451 94.4498 166.029C92.5518 162.232 88.7557 159.49 88.7557 154.85C92.3409 157.803 94.4498 161.81 96.7696 166.029Z" fill="#2B5A05"/>
<path d="M72.9387 182.692C73.5714 182.692 74.415 182.27 74.8368 182.692C76.9457 184.59 79.0546 186.7 81.5853 188.176C82.6397 188.809 82.2181 190.285 82.2181 191.34C78.0002 189.653 75.6803 186.067 72.9387 182.692Z" fill="#2B5A05"/>
<path d="M82.4289 105.493C84.116 106.126 86.4359 104.227 87.4904 105.704C89.1775 108.024 85.3814 108.235 85.1705 109.922C85.1705 110.344 85.1705 110.977 85.1705 111.399C83.4833 109.922 83.6943 107.391 82.4289 105.493Z" fill="#2B5A05"/>
<path d="M129.88 153.584C128.825 155.693 125.662 156.537 127.138 160.545C124.397 159.068 126.505 155.904 123.764 156.115C125.24 153.795 127.349 153.373 129.88 153.584Z" fill="#2B5A05"/>
<path d="M138.105 183.536C138.526 179.317 138.526 179.317 143.588 179.528C141.901 181.426 140.635 183.325 138.105 183.536Z" fill="#2B5A05"/>
<path d="M120.6 138.187C121.866 134.601 124.397 136.71 126.506 136.921C124.818 138.187 122.92 139.452 120.6 138.187Z" fill="#2B5A05"/>
<path d="M126.716 136.71C126.716 135.444 126.084 134.39 127.349 133.124C129.036 131.437 129.458 134.39 130.512 133.546C129.247 134.812 127.982 135.866 126.716 136.71Z" fill="#2B5A05"/>
<path d="M137.894 151.686C135.785 152.319 133.887 153.373 131.778 152.951C133.465 151.053 135.574 151.264 137.894 151.686Z" fill="#2B5A05"/>
<path d="M59.2307 165.185C61.1287 165.396 61.1288 166.662 61.1288 168.138C59.8634 167.505 59.2307 166.662 59.2307 165.185Z" fill="#2B5A05"/>
<path d="M123.764 156.115C123.553 156.748 123.342 156.959 122.709 157.17C122.709 156.537 123.131 156.115 123.764 156.115Z" fill="#2B5A05"/>
<path d="M92.3409 192.184C91.2865 192.184 90.8647 191.551 90.6538 190.707C90.4429 190.074 91.0755 189.864 91.4973 189.653C92.5518 189.442 92.9735 190.074 93.1844 191.129C93.3953 191.762 92.9736 192.184 92.3409 192.184Z" fill="#2B5A05"/>
<path d="M102.042 170.458C101.831 170.247 101.62 170.036 101.62 169.825C101.62 169.615 101.831 169.404 102.042 168.982C102.253 169.193 102.464 169.404 102.464 169.825C102.464 170.036 102.253 170.247 102.042 170.458Z" fill="#2B5A05"/>
<path d="M93.3953 200.621C93.6062 200.621 94.0279 200.621 94.2388 200.621C94.2388 201.043 94.2388 201.253 94.2388 201.675C94.0279 201.464 93.8171 201.043 93.3953 200.621Z" fill="#305F04"/>
<path d="M94.4498 201.675C94.6607 201.675 94.8716 201.886 94.8716 201.886C94.6607 202.308 94.6607 202.097 94.4498 201.675Z" fill="#305F04"/>
<path d="M108.58 152.108C107.947 151.686 107.314 151.475 106.471 151.053C106.682 150.209 106.26 148.733 107.314 148.522C108.79 148.1 109.634 149.577 110.056 150.842C110.478 151.897 109.423 151.897 108.58 152.108Z" fill="#407B08"/>
<path d="M107.525 157.17C107.947 157.17 108.158 157.17 108.58 157.17C108.58 159.068 107.103 160.334 107.314 162.232C106.26 160.967 106.682 159.49 106.682 158.225C106.892 157.803 107.314 157.592 107.525 157.17Z" fill="#407B08"/>
<path d="M107.525 157.17C107.103 157.592 106.892 157.803 106.471 158.225C106.892 157.803 107.314 157.592 107.525 157.17Z" fill="#2B5A05"/>
</svg>
