<svg width="85" height="85" viewBox="0 0 85 85" fill="none" xmlns="http://www.w3.org/2000/svg">
<path fill-rule="evenodd" clip-rule="evenodd" d="M24.9784 0.255C29.5105 0.0463636 30.9555 0 42.5 0C54.0445 0 55.4895 0.0502272 60.0177 0.255C64.5459 0.459773 67.6368 1.18227 70.3414 2.22932C73.1734 3.29955 75.7427 4.9725 77.8677 7.13614C80.0314 9.25727 81.7005 11.8227 82.7668 14.6586C83.8177 17.3632 84.5364 20.4541 84.745 24.9745C84.9536 29.5143 85 30.9593 85 42.5C85 54.0445 84.9498 55.4895 84.745 60.0216C84.5402 64.542 83.8177 67.6329 82.7668 70.3375C81.7004 73.1738 80.0286 75.7435 77.8677 77.8677C75.7427 80.0314 73.1734 81.7005 70.3414 82.7668C67.6368 83.8177 64.5459 84.5364 60.0255 84.745C55.4895 84.9536 54.0445 85 42.5 85C30.9555 85 29.5105 84.9498 24.9784 84.745C20.458 84.5402 17.367 83.8177 14.6625 82.7668C11.8263 81.7003 9.25658 80.0285 7.13227 77.8677C4.9701 75.7453 3.2969 73.1768 2.22932 70.3414C1.18227 67.6368 0.463636 64.5459 0.255 60.0255C0.0463636 55.4857 0 54.0407 0 42.5C0 30.9555 0.0502272 29.5105 0.255 24.9823C0.459773 20.4541 1.18227 17.3632 2.22932 14.6586C3.29847 11.823 4.97296 9.25462 7.13614 7.13227C9.25743 4.97057 11.8246 3.29739 14.6586 2.22932C17.3632 1.18227 20.4541 0.463636 24.9745 0.255H24.9784ZM59.6739 7.905C55.192 7.70023 53.8475 7.65773 42.5 7.65773C31.1525 7.65773 29.808 7.70023 25.3261 7.905C21.1805 8.09432 18.9318 8.78591 17.4327 9.36932C15.4507 10.142 14.0327 11.0577 12.5452 12.5452C11.1352 13.917 10.05 15.587 9.36932 17.4327C8.78591 18.9318 8.09432 21.1805 7.905 25.3261C7.70023 29.808 7.65773 31.1525 7.65773 42.5C7.65773 53.8475 7.70023 55.192 7.905 59.6739C8.09432 63.8195 8.78591 66.0682 9.36932 67.5673C10.0493 69.4102 11.135 71.0832 12.5452 72.4548C13.9168 73.865 15.5898 74.9507 17.4327 75.6307C18.9318 76.2141 21.1805 76.9057 25.3261 77.095C29.808 77.2998 31.1486 77.3423 42.5 77.3423C53.8514 77.3423 55.192 77.2998 59.6739 77.095C63.8195 76.9057 66.0682 76.2141 67.5673 75.6307C69.5493 74.858 70.9673 73.9423 72.4548 72.4548C73.865 71.0832 74.9507 69.4102 75.6307 67.5673C76.2141 66.0682 76.9057 63.8195 77.095 59.6739C77.2998 55.192 77.3423 53.8475 77.3423 42.5C77.3423 31.1525 77.2998 29.808 77.095 25.3261C76.9057 21.1805 76.2141 18.9318 75.6307 17.4327C74.858 15.4507 73.9423 14.0327 72.4548 12.5452C71.0829 11.1353 69.4129 10.0501 67.5673 9.36932C66.0682 8.78591 63.8195 8.09432 59.6739 7.905ZM37.0716 55.6016C40.1032 56.8636 43.479 57.0339 46.6222 56.0835C49.7655 55.133 52.4813 53.1208 54.3058 50.3905C56.1302 47.6602 56.9502 44.3811 56.6256 41.1134C56.3011 37.8456 54.8521 34.7919 52.5261 32.4739C51.0434 30.9921 49.2506 29.8575 47.2767 29.1517C45.3029 28.446 43.1971 28.1866 41.111 28.3924C39.0249 28.5981 37.0104 29.2639 35.2124 30.3416C33.4145 31.4194 31.8779 32.8824 30.7132 34.6253C29.5486 36.3682 28.7848 38.3477 28.477 40.4212C28.1692 42.4947 28.3249 44.6107 28.933 46.6168C29.5411 48.6229 30.5864 50.4692 31.9937 52.0228C33.401 53.5764 35.1352 54.7987 37.0716 55.6016ZM27.0532 27.0532C29.0817 25.0247 31.4899 23.4156 34.1402 22.3178C36.7906 21.2199 39.6313 20.6549 42.5 20.6549C45.3687 20.6549 48.2094 21.2199 50.8598 22.3178C53.5101 23.4156 55.9183 25.0247 57.9468 27.0532C59.9753 29.0817 61.5844 31.4899 62.6822 34.1402C63.7801 36.7906 64.3451 39.6313 64.3451 42.5C64.3451 45.3687 63.7801 48.2094 62.6822 50.8598C61.5844 53.5101 59.9753 55.9183 57.9468 57.9468C53.8501 62.0436 48.2937 64.3451 42.5 64.3451C36.7063 64.3451 31.1499 62.0436 27.0532 57.9468C22.9564 53.8501 20.6549 48.2937 20.6549 42.5C20.6549 36.7063 22.9564 31.1499 27.0532 27.0532ZM69.19 23.9082C69.6927 23.434 70.0951 22.8638 70.3734 22.2313C70.6518 21.5988 70.8004 20.9168 70.8105 20.2259C70.8205 19.5349 70.6919 18.8489 70.4321 18.2086C70.1723 17.5682 69.7867 16.9865 69.298 16.4979C68.8094 16.0092 68.2277 15.6236 67.5873 15.3638C66.947 15.104 66.261 14.9754 65.57 14.9854C64.8791 14.9955 64.1972 15.1441 63.5646 15.4225C62.9321 15.7008 62.3619 16.1032 61.8877 16.6059C60.9655 17.5835 60.4606 18.8821 60.4802 20.2259C60.4998 21.5697 61.0423 22.8529 61.9926 23.8033C62.943 24.7536 64.2262 25.2961 65.57 25.3157C66.9138 25.3353 68.2124 24.8304 69.19 23.9082Z" fill="url(#paint0_linear_1_18)"/>
<defs>
<linearGradient id="paint0_linear_1_18" x1="42.5" y1="0" x2="42.5" y2="85" gradientUnits="userSpaceOnUse">
<stop stop-color="#FFA800"/>
<stop offset="1" stop-color="#AE01FF"/>
</linearGradient>
</defs>
</svg>
