<svg width="242" height="80" viewBox="0 0 242 80" fill="none" xmlns="http://www.w3.org/2000/svg">
<g filter="url(#filter0_d_110_74)">
<mask id="path-1-outside-1_110_74" maskUnits="userSpaceOnUse" x="3" y="3" width="236" height="74" fill="black">
<rect fill="white" x="3" y="3" width="236" height="74"/>
<path d="M32.6938 38.4946L31.3755 41.3877L15.5552 8.35547H18.1919L32.6938 38.4946ZM35.3306 32.7085L33.9756 35.6016L20.8286 8.35547H23.4653L35.3306 32.7085ZM37.9673 26.959L36.6489 29.8521L26.1021 8.35547H28.7388L37.9673 26.959ZM34.6348 48.5654L53.7144 8.35547H56.3511L37.2715 48.5654V69H34.6348V48.5654ZM39.9082 48.5654L58.9878 8.35547H61.6245L42.5449 48.5654V69H39.9082V48.5654ZM45.1816 48.5654L64.2612 8.35547H66.8979L47.8184 48.5654V69H45.1816V48.5654ZM30.6797 45.7822L48.4409 8.35547H51.0776L31.998 48.5654V69H29.3613V48.5654L10.2817 8.35547H12.9185L30.6797 45.7822ZM124.786 42.3398V8.35547H127.422V42.3398C127.422 46.0508 125.958 49.2246 123.028 51.8613C120.098 54.498 116.583 55.8164 112.481 55.8164C108.379 55.8164 104.864 54.498 101.934 51.8613C99.0044 49.2246 97.5396 46.0508 97.5396 42.3398V8.35547H100.176V42.3398C100.176 45.3184 101.373 47.8696 103.765 49.9937C106.182 52.1177 109.087 53.1797 112.481 53.1797C115.875 53.1797 118.768 52.1177 121.16 49.9937C123.577 47.8696 124.786 45.3184 124.786 42.3398ZM130.059 42.3398V8.35547H132.696V42.3398C132.696 44.8789 132.159 47.3081 131.084 49.6274C130.01 51.9224 128.57 53.9121 126.763 55.5967C124.957 57.2812 122.808 58.624 120.318 59.625C117.828 60.6016 115.215 61.0898 112.481 61.0898C109.747 61.0898 107.134 60.6016 104.644 59.625C102.154 58.624 100.005 57.2812 98.1987 55.5967C96.3921 53.9121 94.9517 51.9224 93.8774 49.6274C92.8032 47.3081 92.2661 44.8789 92.2661 42.3398V8.35547H94.9028V42.3398C94.9028 45.2451 95.6841 47.9429 97.2466 50.4331C98.8335 52.8989 100.97 54.8521 103.655 56.2925C106.365 57.7329 109.307 58.4531 112.481 58.4531C115.655 58.4531 118.584 57.7329 121.27 56.2925C123.98 54.8521 126.116 52.8989 127.679 50.4331C129.266 47.9429 130.059 45.2451 130.059 42.3398ZM135.333 42.3398V8.35547H137.969V42.3398C137.969 45.5869 137.286 48.6997 135.918 51.6782C134.576 54.6323 132.769 57.1836 130.499 59.332C128.228 61.4805 125.518 63.1895 122.369 64.459C119.219 65.7285 115.923 66.3633 112.481 66.3633C109.039 66.3633 105.743 65.7285 102.593 64.459C99.4438 63.1895 96.7339 61.4805 94.4634 59.332C92.1929 57.1836 90.374 54.6323 89.0068 51.6782C87.6641 48.6997 86.9927 45.5869 86.9927 42.3398V8.35547H89.6294V42.3398C89.6294 46.1973 90.6548 49.7739 92.7056 53.0698C94.7563 56.3413 97.5273 58.9414 101.019 60.8701C104.534 62.7744 108.355 63.7266 112.481 63.7266C116.607 63.7266 120.416 62.7744 123.907 60.8701C127.422 58.9414 130.206 56.3413 132.256 53.0698C134.307 49.7739 135.333 46.1973 135.333 42.3398ZM140.606 42.3398V8.35547H143.243V42.3398C143.243 47.6133 141.863 52.5083 139.104 57.0249C136.346 61.5171 132.598 65.0815 127.862 67.7183C123.15 70.3306 118.023 71.6367 112.481 71.6367C106.939 71.6367 101.8 70.3306 97.0635 67.7183C92.3516 65.0815 88.6162 61.5171 85.8574 57.0249C83.0986 52.5083 81.7192 47.6133 81.7192 42.3398V8.35547H84.356V42.3398C84.356 45.9287 85.1006 49.3711 86.5898 52.667C88.0791 55.9629 90.0811 58.8071 92.5957 61.1997C95.1104 63.5679 98.1011 65.46 101.568 66.876C105.059 68.292 108.697 69 112.481 69C116.265 69 119.891 68.292 123.357 66.876C126.849 65.46 129.852 63.5679 132.366 61.1997C134.881 58.8071 136.883 55.9629 138.372 52.667C139.861 49.3711 140.606 45.9287 140.606 42.3398ZM159.309 10.9922V8.35547H198.86V10.9922H159.309ZM159.309 16.2656V13.6289H198.86V16.2656H159.309ZM159.309 21.5391V18.9023H198.86V21.5391H188.313V69H185.676V21.5391H183.04V69H180.403V21.5391H177.766V69H175.129V21.5391H172.493V69H169.856V21.5391H159.309ZM231.186 8.35547H233.823V69H231.186V8.35547ZM225.913 8.35547H228.549V69H225.913V8.35547ZM220.639 8.35547H223.276V69H220.639V8.35547ZM215.366 8.35547H218.002V69H215.366V8.35547Z"/>
</mask>
<path d="M32.6938 38.4946L31.3755 41.3877L15.5552 8.35547H18.1919L32.6938 38.4946ZM35.3306 32.7085L33.9756 35.6016L20.8286 8.35547H23.4653L35.3306 32.7085ZM37.9673 26.959L36.6489 29.8521L26.1021 8.35547H28.7388L37.9673 26.959ZM34.6348 48.5654L53.7144 8.35547H56.3511L37.2715 48.5654V69H34.6348V48.5654ZM39.9082 48.5654L58.9878 8.35547H61.6245L42.5449 48.5654V69H39.9082V48.5654ZM45.1816 48.5654L64.2612 8.35547H66.8979L47.8184 48.5654V69H45.1816V48.5654ZM30.6797 45.7822L48.4409 8.35547H51.0776L31.998 48.5654V69H29.3613V48.5654L10.2817 8.35547H12.9185L30.6797 45.7822ZM124.786 42.3398V8.35547H127.422V42.3398C127.422 46.0508 125.958 49.2246 123.028 51.8613C120.098 54.498 116.583 55.8164 112.481 55.8164C108.379 55.8164 104.864 54.498 101.934 51.8613C99.0044 49.2246 97.5396 46.0508 97.5396 42.3398V8.35547H100.176V42.3398C100.176 45.3184 101.373 47.8696 103.765 49.9937C106.182 52.1177 109.087 53.1797 112.481 53.1797C115.875 53.1797 118.768 52.1177 121.16 49.9937C123.577 47.8696 124.786 45.3184 124.786 42.3398ZM130.059 42.3398V8.35547H132.696V42.3398C132.696 44.8789 132.159 47.3081 131.084 49.6274C130.01 51.9224 128.57 53.9121 126.763 55.5967C124.957 57.2812 122.808 58.624 120.318 59.625C117.828 60.6016 115.215 61.0898 112.481 61.0898C109.747 61.0898 107.134 60.6016 104.644 59.625C102.154 58.624 100.005 57.2812 98.1987 55.5967C96.3921 53.9121 94.9517 51.9224 93.8774 49.6274C92.8032 47.3081 92.2661 44.8789 92.2661 42.3398V8.35547H94.9028V42.3398C94.9028 45.2451 95.6841 47.9429 97.2466 50.4331C98.8335 52.8989 100.97 54.8521 103.655 56.2925C106.365 57.7329 109.307 58.4531 112.481 58.4531C115.655 58.4531 118.584 57.7329 121.27 56.2925C123.98 54.8521 126.116 52.8989 127.679 50.4331C129.266 47.9429 130.059 45.2451 130.059 42.3398ZM135.333 42.3398V8.35547H137.969V42.3398C137.969 45.5869 137.286 48.6997 135.918 51.6782C134.576 54.6323 132.769 57.1836 130.499 59.332C128.228 61.4805 125.518 63.1895 122.369 64.459C119.219 65.7285 115.923 66.3633 112.481 66.3633C109.039 66.3633 105.743 65.7285 102.593 64.459C99.4438 63.1895 96.7339 61.4805 94.4634 59.332C92.1929 57.1836 90.374 54.6323 89.0068 51.6782C87.6641 48.6997 86.9927 45.5869 86.9927 42.3398V8.35547H89.6294V42.3398C89.6294 46.1973 90.6548 49.7739 92.7056 53.0698C94.7563 56.3413 97.5273 58.9414 101.019 60.8701C104.534 62.7744 108.355 63.7266 112.481 63.7266C116.607 63.7266 120.416 62.7744 123.907 60.8701C127.422 58.9414 130.206 56.3413 132.256 53.0698C134.307 49.7739 135.333 46.1973 135.333 42.3398ZM140.606 42.3398V8.35547H143.243V42.3398C143.243 47.6133 141.863 52.5083 139.104 57.0249C136.346 61.5171 132.598 65.0815 127.862 67.7183C123.15 70.3306 118.023 71.6367 112.481 71.6367C106.939 71.6367 101.8 70.3306 97.0635 67.7183C92.3516 65.0815 88.6162 61.5171 85.8574 57.0249C83.0986 52.5083 81.7192 47.6133 81.7192 42.3398V8.35547H84.356V42.3398C84.356 45.9287 85.1006 49.3711 86.5898 52.667C88.0791 55.9629 90.0811 58.8071 92.5957 61.1997C95.1104 63.5679 98.1011 65.46 101.568 66.876C105.059 68.292 108.697 69 112.481 69C116.265 69 119.891 68.292 123.357 66.876C126.849 65.46 129.852 63.5679 132.366 61.1997C134.881 58.8071 136.883 55.9629 138.372 52.667C139.861 49.3711 140.606 45.9287 140.606 42.3398ZM159.309 10.9922V8.35547H198.86V10.9922H159.309ZM159.309 16.2656V13.6289H198.86V16.2656H159.309ZM159.309 21.5391V18.9023H198.86V21.5391H188.313V69H185.676V21.5391H183.04V69H180.403V21.5391H177.766V69H175.129V21.5391H172.493V69H169.856V21.5391H159.309ZM231.186 8.35547H233.823V69H231.186V8.35547ZM225.913 8.35547H228.549V69H225.913V8.35547ZM220.639 8.35547H223.276V69H220.639V8.35547ZM215.366 8.35547H218.002V69H215.366V8.35547Z" fill="#9B5CFF" shape-rendering="crispEdges"/>
<path d="M32.6938 38.4946L36.7887 40.3606L37.6627 38.4427L36.7489 36.5435L32.6938 38.4946ZM31.3755 41.3877L27.317 43.3315L31.4769 52.0172L35.4704 43.2537L31.3755 41.3877ZM15.5552 8.35547V3.85547H8.41048L11.4966 10.2992L15.5552 8.35547ZM18.1919 8.35547L22.2469 6.40434L21.0205 3.85547H18.1919V8.35547ZM35.3306 32.7085L39.4058 34.6171L40.3176 32.6702L39.376 30.7375L35.3306 32.7085ZM33.9756 35.6016L29.9227 37.5572L34.0362 46.0819L38.0508 37.5102L33.9756 35.6016ZM20.8286 8.35547V3.85547H13.6608L16.7758 10.3111L20.8286 8.35547ZM23.4653 8.35547L27.5107 6.38448L26.2785 3.85547H23.4653V8.35547ZM37.9673 26.959L42.0622 28.825L42.9499 26.877L41.9985 24.9592L37.9673 26.959ZM36.6489 29.8521L32.609 31.8342L36.7991 40.3745L40.7438 31.7181L36.6489 29.8521ZM26.1021 8.35547V3.85547H18.8818L22.0621 10.3376L26.1021 8.35547ZM28.7388 8.35547L32.77 6.35571L31.5297 3.85547H28.7388V8.35547ZM34.6348 48.5654L30.5692 46.6363L30.1348 47.552V48.5654H34.6348ZM53.7144 8.35547V3.85547H50.8687L49.6488 6.42637L53.7144 8.35547ZM56.3511 8.35547L60.4166 10.2846L63.4672 3.85547H56.3511V8.35547ZM37.2715 48.5654L33.2059 46.6363L32.7715 47.552V48.5654H37.2715ZM37.2715 69V73.5H41.7715V69H37.2715ZM34.6348 69H30.1348V73.5H34.6348V69ZM39.9082 48.5654L35.8427 46.6363L35.4082 47.552V48.5654H39.9082ZM58.9878 8.35547V3.85547H56.1421L54.9223 6.42637L58.9878 8.35547ZM61.6245 8.35547L65.69 10.2846L68.7406 3.85547H61.6245V8.35547ZM42.5449 48.5654L38.4794 46.6363L38.0449 47.552V48.5654H42.5449ZM42.5449 69V73.5H47.0449V69H42.5449ZM39.9082 69H35.4082V73.5H39.9082V69ZM45.1816 48.5654L41.1161 46.6363L40.6816 47.552V48.5654H45.1816ZM64.2612 8.35547V3.85547H61.4156L60.1957 6.42637L64.2612 8.35547ZM66.8979 8.35547L70.9635 10.2846L74.0141 3.85547H66.8979V8.35547ZM47.8184 48.5654L43.7528 46.6363L43.3184 47.552V48.5654H47.8184ZM47.8184 69V73.5H52.3184V69H47.8184ZM45.1816 69H40.6816V73.5H45.1816V69ZM30.6797 45.7822L26.6142 47.7115L30.6797 56.2783L34.7451 47.7115L30.6797 45.7822ZM48.4409 8.35547V3.85547H45.5954L44.3755 6.42617L48.4409 8.35547ZM51.0776 8.35547L55.1432 10.2846L58.1938 3.85547H51.0776V8.35547ZM31.998 48.5654L27.9325 46.6363L27.498 47.552V48.5654H31.998ZM31.998 69V73.5H36.498V69H31.998ZM29.3613 69H24.8613V73.5H29.3613V69ZM29.3613 48.5654H33.8613V47.552L33.4269 46.6363L29.3613 48.5654ZM10.2817 8.35547V3.85547H3.1656L6.2162 10.2846L10.2817 8.35547ZM12.9185 8.35547L16.9839 6.42617L15.7639 3.85547H12.9185V8.35547ZM32.6938 38.4946L28.599 36.6286L27.2806 39.5217L31.3755 41.3877L35.4704 43.2537L36.7887 40.3606L32.6938 38.4946ZM31.3755 41.3877L35.434 39.4439L19.6137 6.41169L15.5552 8.35547L11.4966 10.2992L27.317 43.3315L31.3755 41.3877ZM15.5552 8.35547V12.8555H18.1919V8.35547V3.85547H15.5552V8.35547ZM18.1919 8.35547L14.1369 10.3066L28.6388 40.4458L32.6938 38.4946L36.7489 36.5435L22.2469 6.40434L18.1919 8.35547ZM35.3306 32.7085L31.2554 30.7999L29.9004 33.6929L33.9756 35.6016L38.0508 37.5102L39.4058 34.6171L35.3306 32.7085ZM33.9756 35.6016L38.0284 33.646L24.8815 6.39986L20.8286 8.35547L16.7758 10.3111L29.9227 37.5572L33.9756 35.6016ZM20.8286 8.35547V12.8555H23.4653V8.35547V3.85547H20.8286V8.35547ZM23.4653 8.35547L19.4199 10.3265L31.2852 34.6795L35.3306 32.7085L39.376 30.7375L27.5107 6.38448L23.4653 8.35547ZM37.9673 26.959L33.8724 25.093L32.5541 27.986L36.6489 29.8521L40.7438 31.7181L42.0622 28.825L37.9673 26.959ZM36.6489 29.8521L40.6889 27.8699L30.142 6.37335L26.1021 8.35547L22.0621 10.3376L32.609 31.8342L36.6489 29.8521ZM26.1021 8.35547V12.8555H28.7388V8.35547V3.85547H26.1021V8.35547ZM28.7388 8.35547L24.7075 10.3552L33.936 28.9587L37.9673 26.959L41.9985 24.9592L32.77 6.35571L28.7388 8.35547ZM34.6348 48.5654L38.7003 50.4945L57.7799 10.2846L53.7144 8.35547L49.6488 6.42637L30.5692 46.6363L34.6348 48.5654ZM53.7144 8.35547V12.8555H56.3511V8.35547V3.85547H53.7144V8.35547ZM56.3511 8.35547L52.2855 6.42637L33.2059 46.6363L37.2715 48.5654L41.337 50.4945L60.4166 10.2846L56.3511 8.35547ZM37.2715 48.5654H32.7715V69H37.2715H41.7715V48.5654H37.2715ZM37.2715 69V64.5H34.6348V69V73.5H37.2715V69ZM34.6348 69H39.1348V48.5654H34.6348H30.1348V69H34.6348ZM39.9082 48.5654L43.9737 50.4945L63.0533 10.2846L58.9878 8.35547L54.9223 6.42637L35.8427 46.6363L39.9082 48.5654ZM58.9878 8.35547V12.8555H61.6245V8.35547V3.85547H58.9878V8.35547ZM61.6245 8.35547L57.559 6.42637L38.4794 46.6363L42.5449 48.5654L46.6105 50.4945L65.69 10.2846L61.6245 8.35547ZM42.5449 48.5654H38.0449V69H42.5449H47.0449V48.5654H42.5449ZM42.5449 69V64.5H39.9082V69V73.5H42.5449V69ZM39.9082 69H44.4082V48.5654H39.9082H35.4082V69H39.9082ZM45.1816 48.5654L49.2472 50.4945L68.3268 10.2846L64.2612 8.35547L60.1957 6.42637L41.1161 46.6363L45.1816 48.5654ZM64.2612 8.35547V12.8555H66.8979V8.35547V3.85547H64.2612V8.35547ZM66.8979 8.35547L62.8324 6.42637L43.7528 46.6363L47.8184 48.5654L51.8839 50.4945L70.9635 10.2846L66.8979 8.35547ZM47.8184 48.5654H43.3184V69H47.8184H52.3184V48.5654H47.8184ZM47.8184 69V64.5H45.1816V69V73.5H47.8184V69ZM45.1816 69H49.6816V48.5654H45.1816H40.6816V69H45.1816ZM30.6797 45.7822L34.7451 47.7115L52.5064 10.2848L48.4409 8.35547L44.3755 6.42617L26.6142 43.8529L30.6797 45.7822ZM48.4409 8.35547V12.8555H51.0776V8.35547V3.85547H48.4409V8.35547ZM51.0776 8.35547L47.0121 6.42637L27.9325 46.6363L31.998 48.5654L36.0636 50.4945L55.1432 10.2846L51.0776 8.35547ZM31.998 48.5654H27.498V69H31.998H36.498V48.5654H31.998ZM31.998 69V64.5H29.3613V69V73.5H31.998V69ZM29.3613 69H33.8613V48.5654H29.3613H24.8613V69H29.3613ZM29.3613 48.5654L33.4269 46.6363L14.3473 6.42637L10.2817 8.35547L6.2162 10.2846L25.2958 50.4945L29.3613 48.5654ZM10.2817 8.35547V12.8555H12.9185V8.35547V3.85547H10.2817V8.35547ZM12.9185 8.35547L8.85301 10.2848L26.6142 47.7115L30.6797 45.7822L34.7451 43.8529L16.9839 6.42617L12.9185 8.35547ZM124.786 8.35547V3.85547H120.286V8.35547H124.786ZM127.422 8.35547H131.922V3.85547H127.422V8.35547ZM97.5396 8.35547V3.85547H93.0396V8.35547H97.5396ZM100.176 8.35547H104.676V3.85547H100.176V8.35547ZM103.765 49.9937L100.778 53.3589L100.786 53.3664L100.795 53.3739L103.765 49.9937ZM121.16 49.9937L118.19 46.6134L118.181 46.6209L118.173 46.6284L121.16 49.9937ZM130.059 8.35547V3.85547H125.559V8.35547H130.059ZM132.696 8.35547H137.196V3.85547H132.696V8.35547ZM131.084 49.6274L135.16 51.5352L135.164 51.5269L135.168 51.5187L131.084 49.6274ZM120.318 59.625L121.961 63.8144L121.979 63.8074L121.996 63.8003L120.318 59.625ZM104.644 59.625L102.966 63.8003L102.983 63.8074L103.001 63.8144L104.644 59.625ZM93.8774 49.6274L89.7941 51.5187L89.798 51.5269L89.8018 51.5352L93.8774 49.6274ZM92.2661 8.35547V3.85547H87.7661V8.35547H92.2661ZM94.9028 8.35547H99.4028V3.85547H94.9028V8.35547ZM97.2466 50.4331L93.4348 52.8248L93.4485 52.8467L93.4625 52.8684L97.2466 50.4331ZM103.655 56.2925L101.528 60.2581L101.536 60.2621L101.543 60.266L103.655 56.2925ZM121.27 56.2925L119.158 52.3189L119.15 52.3229L119.143 52.3269L121.27 56.2925ZM127.679 50.4331L123.884 48.0148L123.878 48.0245L127.679 50.4331ZM135.333 8.35547V3.85547H130.833V8.35547H135.333ZM137.969 8.35547H142.469V3.85547H137.969V8.35547ZM135.918 51.6782L131.829 49.801L131.825 49.8085L131.822 49.8161L135.918 51.6782ZM89.0068 51.6782L84.9044 53.5277L84.9136 53.548L84.923 53.5683L89.0068 51.6782ZM86.9927 8.35547V3.85547H82.4927V8.35547H86.9927ZM89.6294 8.35547H94.1294V3.85547H89.6294V8.35547ZM92.7056 53.0698L88.8848 55.4472L88.8888 55.4536L88.8928 55.4599L92.7056 53.0698ZM101.019 60.8701L98.8425 64.809L98.8589 64.818L98.8753 64.8269L101.019 60.8701ZM123.907 60.8701L126.062 64.8207L126.071 64.8154L123.907 60.8701ZM132.256 53.0698L136.069 55.4599L136.073 55.4536L136.077 55.4472L132.256 53.0698ZM140.606 8.35547V3.85547H136.106V8.35547H140.606ZM143.243 8.35547H147.743V3.85547H143.243V8.35547ZM139.104 57.0249L142.939 59.3799L142.945 59.3706L139.104 57.0249ZM127.862 67.7183L130.044 71.6539L130.051 71.6501L127.862 67.7183ZM97.0635 67.7183L94.866 71.6452L94.8781 71.652L94.8902 71.6587L97.0635 67.7183ZM85.8574 57.0249L82.0171 59.3706L82.0228 59.3799L85.8574 57.0249ZM81.7192 8.35547V3.85547H77.2192V8.35547H81.7192ZM84.356 8.35547H88.856V3.85547H84.356V8.35547ZM92.5957 61.1997L89.4938 64.4598L89.5022 64.4678L89.5106 64.4757L92.5957 61.1997ZM101.568 66.876L99.8663 71.0419L99.8765 71.046L101.568 66.876ZM123.357 66.876L121.666 62.7059L121.656 62.7101L123.357 66.876ZM132.366 61.1997L135.451 64.4757L135.46 64.4678L135.468 64.4598L132.366 61.1997ZM124.786 42.3398H129.286V8.35547H124.786H120.286V42.3398H124.786ZM124.786 8.35547V12.8555H127.422V8.35547V3.85547H124.786V8.35547ZM127.422 8.35547H122.922V42.3398H127.422H131.922V8.35547H127.422ZM127.422 42.3398H122.922C122.922 44.6883 122.065 46.6733 120.017 48.5165L123.028 51.8613L126.038 55.2062C129.85 51.7759 131.922 47.4133 131.922 42.3398H127.422ZM123.028 51.8613L120.017 48.5165C117.95 50.377 115.52 51.3164 112.481 51.3164V55.8164V60.3164C117.645 60.3164 122.246 58.6191 126.038 55.2062L123.028 51.8613ZM112.481 55.8164V51.3164C109.442 51.3164 107.012 50.377 104.944 48.5165L101.934 51.8613L98.9237 55.2062C102.716 58.6191 107.317 60.3164 112.481 60.3164V55.8164ZM101.934 51.8613L104.944 48.5165C102.896 46.6733 102.04 44.6883 102.04 42.3398H97.5396H93.0396C93.0396 47.4133 95.1123 51.7759 98.9237 55.2062L101.934 51.8613ZM97.5396 42.3398H102.04V8.35547H97.5396H93.0396V42.3398H97.5396ZM97.5396 8.35547V12.8555H100.176V8.35547V3.85547H97.5396V8.35547ZM100.176 8.35547H95.6763V42.3398H100.176H104.676V8.35547H100.176ZM100.176 42.3398H95.6763C95.6763 46.7085 97.5035 50.4523 100.778 53.3589L103.765 49.9937L106.753 46.6284C105.242 45.287 104.676 43.9282 104.676 42.3398H100.176ZM103.765 49.9937L100.795 53.3739C104.081 56.2615 108.059 57.6797 112.481 57.6797V53.1797V48.6797C110.116 48.6797 108.284 47.9738 106.736 46.6134L103.765 49.9937ZM112.481 53.1797V57.6797C116.903 57.6797 120.879 56.2609 124.148 53.3589L121.16 49.9937L118.173 46.6284C116.656 47.9744 114.846 48.6797 112.481 48.6797V53.1797ZM121.16 49.9937L124.131 53.3739C127.432 50.4729 129.286 46.7254 129.286 42.3398H124.786H120.286C120.286 43.9113 119.722 45.2664 118.19 46.6134L121.16 49.9937ZM130.059 42.3398H134.559V8.35547H130.059H125.559V42.3398H130.059ZM130.059 8.35547V12.8555H132.696V8.35547V3.85547H130.059V8.35547ZM132.696 8.35547H128.196V42.3398H132.696H137.196V8.35547H132.696ZM132.696 42.3398H128.196C128.196 44.2212 127.803 46.0055 127.001 47.7362L131.084 49.6274L135.168 51.5187C136.515 48.6107 137.196 45.5366 137.196 42.3398H132.696ZM131.084 49.6274L127.009 47.7197C126.172 49.5071 125.069 51.0236 123.694 52.3055L126.763 55.5967L129.832 58.8879C132.071 56.8006 133.848 54.3377 135.16 51.5352L131.084 49.6274ZM126.763 55.5967L123.694 52.3055C122.327 53.5808 120.66 54.6374 118.64 55.4497L120.318 59.625L121.996 63.8003C124.956 62.6107 127.586 60.9817 129.832 58.8879L126.763 55.5967ZM120.318 59.625L118.675 55.4356C116.72 56.2023 114.666 56.5898 112.481 56.5898V61.0898V65.5898C115.765 65.5898 118.935 65.0008 121.961 63.8144L120.318 59.625ZM112.481 61.0898V56.5898C110.296 56.5898 108.242 56.2023 106.287 55.4356L104.644 59.625L103.001 63.8144C106.027 65.0008 109.197 65.5898 112.481 65.5898V61.0898ZM104.644 59.625L106.322 55.4497C104.301 54.6374 102.635 53.5808 101.268 52.3055L98.1987 55.5967L95.1299 58.8879C97.3754 60.9817 100.006 62.6107 102.966 63.8003L104.644 59.625ZM98.1987 55.5967L101.268 52.3055C99.8929 51.0236 98.7897 49.5071 97.953 47.7197L93.8774 49.6274L89.8018 51.5352C91.1136 54.3377 92.8913 56.8006 95.1299 58.8879L98.1987 55.5967ZM93.8774 49.6274L97.9607 47.7362C97.1591 46.0055 96.7661 44.2212 96.7661 42.3398H92.2661H87.7661C87.7661 45.5366 88.4473 48.6107 89.7941 51.5187L93.8774 49.6274ZM92.2661 42.3398H96.7661V8.35547H92.2661H87.7661V42.3398H92.2661ZM92.2661 8.35547V12.8555H94.9028V8.35547V3.85547H92.2661V8.35547ZM94.9028 8.35547H90.4028V42.3398H94.9028H99.4028V8.35547H94.9028ZM94.9028 42.3398H90.4028C90.4028 46.1018 91.4283 49.6269 93.4348 52.8248L97.2466 50.4331L101.058 48.0414C99.9399 46.2588 99.4028 44.3884 99.4028 42.3398H94.9028ZM97.2466 50.4331L93.4625 52.8684C95.4795 56.0025 98.1969 58.4712 101.528 60.2581L103.655 56.2925L105.782 52.3269C103.743 51.2329 102.188 49.7954 101.031 47.9978L97.2466 50.4331ZM103.655 56.2925L101.543 60.266C104.926 62.0642 108.597 62.9531 112.481 62.9531V58.4531V53.9531C110.018 53.9531 107.804 53.4016 105.767 52.3189L103.655 56.2925ZM112.481 58.4531V62.9531C116.365 62.9531 120.03 62.0641 123.397 60.2581L121.27 56.2925L119.143 52.3269C117.139 53.4017 114.944 53.9531 112.481 53.9531V58.4531ZM121.27 56.2925L123.382 60.266C126.745 58.4788 129.478 56.0011 131.48 52.8417L127.679 50.4331L123.878 48.0245C122.755 49.7967 121.215 51.2253 119.158 52.3189L121.27 56.2925ZM127.679 50.4331L131.474 52.8515C133.513 49.6512 134.559 46.1167 134.559 42.3398H130.059H125.559C125.559 44.3736 125.018 46.2345 123.884 48.0148L127.679 50.4331ZM135.333 42.3398H139.833V8.35547H135.333H130.833V42.3398H135.333ZM135.333 8.35547V12.8555H137.969V8.35547V3.85547H135.333V8.35547ZM137.969 8.35547H133.469V42.3398H137.969H142.469V8.35547H137.969ZM137.969 42.3398H133.469C133.469 44.9327 132.928 47.4057 131.829 49.801L135.918 51.6782L140.008 53.5555C141.643 49.9937 142.469 46.2411 142.469 42.3398H137.969ZM135.918 51.6782L131.822 49.8161C130.71 52.2615 129.238 54.3298 127.406 56.0634L130.499 59.332L133.591 62.6007C136.3 60.0374 138.441 57.0032 140.015 53.5403L135.918 51.6782ZM130.499 59.332L127.406 56.0634C125.579 57.7923 123.358 59.2082 120.686 60.2853L122.369 64.459L124.051 68.6327C127.678 67.1707 130.878 65.1687 133.591 62.6007L130.499 59.332ZM122.369 64.459L120.686 60.2853C118.079 61.3363 115.355 61.8633 112.481 61.8633V66.3633V70.8633C116.492 70.8633 120.359 70.1207 124.051 68.6327L122.369 64.459ZM112.481 66.3633V61.8633C109.607 61.8633 106.883 61.3363 104.276 60.2853L102.593 64.459L100.911 68.6327C104.602 70.1207 108.47 70.8633 112.481 70.8633V66.3633ZM102.593 64.459L104.276 60.2853C101.604 59.2082 99.3834 57.7923 97.5563 56.0634L94.4634 59.332L91.3705 62.6007C94.0844 65.1687 97.2841 67.1707 100.911 68.6327L102.593 64.459ZM94.4634 59.332L97.5563 56.0634C95.7177 54.3236 94.2281 52.2458 93.0907 49.7882L89.0068 51.6782L84.923 53.5683C86.5199 57.0188 88.6681 60.0436 91.3705 62.6007L94.4634 59.332ZM89.0068 51.6782L93.1092 49.8288C92.0269 47.4279 91.4927 44.9452 91.4927 42.3398H86.9927H82.4927C82.4927 46.2287 83.3013 49.9715 84.9044 53.5277L89.0068 51.6782ZM86.9927 42.3398H91.4927V8.35547H86.9927H82.4927V42.3398H86.9927ZM86.9927 8.35547V12.8555H89.6294V8.35547V3.85547H86.9927V8.35547ZM89.6294 8.35547H85.1294V42.3398H89.6294H94.1294V8.35547H89.6294ZM89.6294 42.3398H85.1294C85.1294 47.0432 86.3931 51.4426 88.8848 55.4472L92.7056 53.0698L96.5263 50.6925C94.9165 48.1053 94.1294 45.3513 94.1294 42.3398H89.6294ZM92.7056 53.0698L88.8928 55.4599C91.3627 59.4 94.7062 62.5239 98.8425 64.809L101.019 60.8701L103.195 56.9312C100.349 55.3589 98.15 53.2826 96.5184 50.6797L92.7056 53.0698ZM101.019 60.8701L98.8753 64.8269C103.071 67.0994 107.631 68.2266 112.481 68.2266V63.7266V59.2266C109.079 59.2266 105.998 58.4495 103.162 56.9133L101.019 60.8701ZM112.481 63.7266V68.2266C117.331 68.2266 121.884 67.0993 126.062 64.8206L123.907 60.8701L121.752 56.9196C118.947 58.4495 115.883 59.2266 112.481 59.2266V63.7266ZM123.907 60.8701L126.071 64.8154C130.233 62.5322 133.595 59.4075 136.069 55.4599L132.256 53.0698L128.444 50.6797C126.817 53.2751 124.612 55.3506 121.742 56.9248L123.907 60.8701ZM132.256 53.0698L136.077 55.4472C138.569 51.4426 139.833 47.0432 139.833 42.3398H135.333H130.833C130.833 45.3513 130.045 48.1053 128.436 50.6925L132.256 53.0698ZM140.606 42.3398H145.106V8.35547H140.606H136.106V42.3398H140.606ZM140.606 8.35547V12.8555H143.243V8.35547V3.85547H140.606V8.35547ZM143.243 8.35547H138.743V42.3398H143.243H147.743V8.35547H143.243ZM143.243 42.3398H138.743C138.743 46.7824 137.593 50.8663 135.264 54.6792L139.104 57.0249L142.945 59.3706C146.133 54.1503 147.743 48.4441 147.743 42.3398H143.243ZM139.104 57.0249L135.27 54.67C132.927 58.4848 129.754 61.5143 125.673 63.7865L127.862 67.7183L130.051 71.6501C135.442 68.6488 139.764 64.5493 142.939 59.3799L139.104 57.0249ZM127.862 67.7183L125.68 63.7826C121.655 66.0139 117.282 67.1367 112.481 67.1367V71.6367V76.1367C118.764 76.1367 124.645 74.6473 130.044 71.6539L127.862 67.7183ZM112.481 71.6367V67.1367C107.68 67.1367 103.291 66.0138 99.2368 63.7779L97.0635 67.7183L94.8902 71.6587C100.309 74.6473 106.198 76.1367 112.481 76.1367V71.6367ZM97.0635 67.7183L99.261 63.7913C95.2031 61.5206 92.0383 58.4905 89.692 54.67L85.8574 57.0249L82.0228 59.3799C85.1941 64.5437 89.5 68.6425 94.866 71.6452L97.0635 67.7183ZM85.8574 57.0249L89.6977 54.6792C87.3687 50.8663 86.2192 46.7824 86.2192 42.3398H81.7192H77.2192C77.2192 48.4441 78.8286 54.1503 82.0171 59.3706L85.8574 57.0249ZM81.7192 42.3398H86.2192V8.35547H81.7192H77.2192V42.3398H81.7192ZM81.7192 8.35547V12.8555H84.356V8.35547V3.85547H81.7192V8.35547ZM84.356 8.35547H79.856V42.3398H84.356H88.856V8.35547H84.356ZM84.356 42.3398H79.856C79.856 46.5728 80.7388 50.6464 82.489 54.5199L86.5898 52.667L90.6906 50.814C89.4624 48.0958 88.856 45.2846 88.856 42.3398H84.356ZM86.5898 52.667L82.489 54.5199C84.2072 58.3223 86.5409 61.6503 89.4938 64.4598L92.5957 61.1997L95.6976 57.9396C93.6212 55.964 91.951 53.6034 90.6906 50.814L86.5898 52.667ZM92.5957 61.1997L89.5106 64.4757C92.4605 67.2537 95.9308 69.4344 99.8663 71.0419L101.568 66.876L103.269 62.7101C100.271 61.4855 97.7602 59.882 95.6808 57.9237L92.5957 61.1997ZM101.568 66.876L99.8765 71.046C103.907 72.6809 108.12 73.5 112.481 73.5V69V64.5C109.274 64.5 106.211 63.903 103.259 62.7059L101.568 66.876ZM112.481 69V73.5C116.842 73.5 121.046 72.6809 125.059 71.0419L123.357 66.876L121.656 62.7101C118.735 63.9031 115.688 64.5 112.481 64.5V69ZM123.357 66.876L125.049 71.046C129.009 69.4398 132.496 67.2588 135.451 64.4757L132.366 61.1997L129.281 57.9237C127.207 59.877 124.688 61.4801 121.666 62.7059L123.357 66.876ZM132.366 61.1997L135.468 64.4598C138.421 61.6503 140.755 58.3223 142.473 54.5199L138.372 52.667L134.271 50.814C133.011 53.6034 131.341 55.964 129.264 57.9396L132.366 61.1997ZM138.372 52.667L142.473 54.5199C144.223 50.6464 145.106 46.5728 145.106 42.3398H140.606H136.106C136.106 45.2846 135.5 48.0958 134.271 50.814L138.372 52.667ZM159.309 10.9922H154.809V15.4922H159.309V10.9922ZM159.309 8.35547V3.85547H154.809V8.35547H159.309ZM198.86 8.35547H203.36V3.85547H198.86V8.35547ZM198.86 10.9922V15.4922H203.36V10.9922H198.86ZM159.309 16.2656H154.809V20.7656H159.309V16.2656ZM159.309 13.6289V9.12891H154.809V13.6289H159.309ZM198.86 13.6289H203.36V9.12891H198.86V13.6289ZM198.86 16.2656V20.7656H203.36V16.2656H198.86ZM159.309 21.5391H154.809V26.0391H159.309V21.5391ZM159.309 18.9023V14.4023H154.809V18.9023H159.309ZM198.86 18.9023H203.36V14.4023H198.86V18.9023ZM198.86 21.5391V26.0391H203.36V21.5391H198.86ZM188.313 21.5391V17.0391H183.813V21.5391H188.313ZM188.313 69V73.5H192.813V69H188.313ZM185.676 69H181.176V73.5H185.676V69ZM185.676 21.5391H190.176V17.0391H185.676V21.5391ZM183.04 21.5391V17.0391H178.54V21.5391H183.04ZM183.04 69V73.5H187.54V69H183.04ZM180.403 69H175.903V73.5H180.403V69ZM180.403 21.5391H184.903V17.0391H180.403V21.5391ZM177.766 21.5391V17.0391H173.266V21.5391H177.766ZM177.766 69V73.5H182.266V69H177.766ZM175.129 69H170.629V73.5H175.129V69ZM175.129 21.5391H179.629V17.0391H175.129V21.5391ZM172.493 21.5391V17.0391H167.993V21.5391H172.493ZM172.493 69V73.5H176.993V69H172.493ZM169.856 69H165.356V73.5H169.856V69ZM169.856 21.5391H174.356V17.0391H169.856V21.5391ZM159.309 10.9922H163.809V8.35547H159.309H154.809V10.9922H159.309ZM159.309 8.35547V12.8555H198.86V8.35547V3.85547H159.309V8.35547ZM198.86 8.35547H194.36V10.9922H198.86H203.36V8.35547H198.86ZM198.86 10.9922V6.49219H159.309V10.9922V15.4922H198.86V10.9922ZM159.309 16.2656H163.809V13.6289H159.309H154.809V16.2656H159.309ZM159.309 13.6289V18.1289H198.86V13.6289V9.12891H159.309V13.6289ZM198.86 13.6289H194.36V16.2656H198.86H203.36V13.6289H198.86ZM198.86 16.2656V11.7656H159.309V16.2656V20.7656H198.86V16.2656ZM159.309 21.5391H163.809V18.9023H159.309H154.809V21.5391H159.309ZM159.309 18.9023V23.4023H198.86V18.9023V14.4023H159.309V18.9023ZM198.86 18.9023H194.36V21.5391H198.86H203.36V18.9023H198.86ZM198.86 21.5391V17.0391H188.313V21.5391V26.0391H198.86V21.5391ZM188.313 21.5391H183.813V69H188.313H192.813V21.5391H188.313ZM188.313 69V64.5H185.676V69V73.5H188.313V69ZM185.676 69H190.176V21.5391H185.676H181.176V69H185.676ZM185.676 21.5391V17.0391H183.04V21.5391V26.0391H185.676V21.5391ZM183.04 21.5391H178.54V69H183.04H187.54V21.5391H183.04ZM183.04 69V64.5H180.403V69V73.5H183.04V69ZM180.403 69H184.903V21.5391H180.403H175.903V69H180.403ZM180.403 21.5391V17.0391H177.766V21.5391V26.0391H180.403V21.5391ZM177.766 21.5391H173.266V69H177.766H182.266V21.5391H177.766ZM177.766 69V64.5H175.129V69V73.5H177.766V69ZM175.129 69H179.629V21.5391H175.129H170.629V69H175.129ZM175.129 21.5391V17.0391H172.493V21.5391V26.0391H175.129V21.5391ZM172.493 21.5391H167.993V69H172.493H176.993V21.5391H172.493ZM172.493 69V64.5H169.856V69V73.5H172.493V69ZM169.856 69H174.356V21.5391H169.856H165.356V69H169.856ZM169.856 21.5391V17.0391H159.309V21.5391V26.0391H169.856V21.5391ZM231.186 8.35547V3.85547H226.686V8.35547H231.186ZM233.823 8.35547H238.323V3.85547H233.823V8.35547ZM233.823 69V73.5H238.323V69H233.823ZM231.186 69H226.686V73.5H231.186V69ZM225.913 8.35547V3.85547H221.413V8.35547H225.913ZM228.549 8.35547H233.049V3.85547H228.549V8.35547ZM228.549 69V73.5H233.049V69H228.549ZM225.913 69H221.413V73.5H225.913V69ZM220.639 8.35547V3.85547H216.139V8.35547H220.639ZM223.276 8.35547H227.776V3.85547H223.276V8.35547ZM223.276 69V73.5H227.776V69H223.276ZM220.639 69H216.139V73.5H220.639V69ZM215.366 8.35547V3.85547H210.866V8.35547H215.366ZM218.002 8.35547H222.502V3.85547H218.002V8.35547ZM218.002 69V73.5H222.502V69H218.002ZM215.366 69H210.866V73.5H215.366V69ZM231.186 8.35547V12.8555H233.823V8.35547V3.85547H231.186V8.35547ZM233.823 8.35547H229.323V69H233.823H238.323V8.35547H233.823ZM233.823 69V64.5H231.186V69V73.5H233.823V69ZM231.186 69H235.686V8.35547H231.186H226.686V69H231.186ZM225.913 8.35547V12.8555H228.549V8.35547V3.85547H225.913V8.35547ZM228.549 8.35547H224.049V69H228.549H233.049V8.35547H228.549ZM228.549 69V64.5H225.913V69V73.5H228.549V69ZM225.913 69H230.413V8.35547H225.913H221.413V69H225.913ZM220.639 8.35547V12.8555H223.276V8.35547V3.85547H220.639V8.35547ZM223.276 8.35547H218.776V69H223.276H227.776V8.35547H223.276ZM223.276 69V64.5H220.639V69V73.5H223.276V69ZM220.639 69H225.139V8.35547H220.639H216.139V69H220.639ZM215.366 8.35547V12.8555H218.002V8.35547V3.85547H215.366V8.35547ZM218.002 8.35547H213.502V69H218.002H222.502V8.35547H218.002ZM218.002 69V64.5H215.366V69V73.5H218.002V69ZM215.366 69H219.866V8.35547H215.366H210.866V69H215.366Z" fill="#9B5CFF" fill-opacity="0.23" mask="url(#path-1-outside-1_110_74)"/>
</g>
<defs>
<filter id="filter0_d_110_74" x="0.166016" y="0.855469" width="241.156" height="78.2812" filterUnits="userSpaceOnUse" color-interpolation-filters="sRGB">
<feFlood flood-opacity="0" result="BackgroundImageFix"/>
<feColorMatrix in="SourceAlpha" type="matrix" values="0 0 0 0 0 0 0 0 0 0 0 0 0 0 0 0 0 0 127 0" result="hardAlpha"/>
<feOffset/>
<feGaussianBlur stdDeviation="1.5"/>
<feComposite in2="hardAlpha" operator="out"/>
<feColorMatrix type="matrix" values="0 0 0 0 0.290196 0 0 0 0 0.227451 0 0 0 0 1 0 0 0 0.4 0"/>
<feBlend mode="normal" in2="BackgroundImageFix" result="effect1_dropShadow_110_74"/>
<feBlend mode="normal" in="SourceGraphic" in2="effect1_dropShadow_110_74" result="shape"/>
</filter>
</defs>
</svg>
