<svg width="125" height="34" viewBox="0 0 125 34" fill="none" xmlns="http://www.w3.org/2000/svg">
<path d="M2.3 32.35C2.2 32.35 2.15 32.3 2.15 32.2C2.15 32.0667 2.23333 31.9167 2.4 31.75C2.6 31.55 2.76667 31.4667 2.9 31.5C3.7 31.5 4.41667 31.5167 5.05 31.55C5.68333 31.55 6.23333 31.55 6.7 31.55C7.9 31.55 8.78333 31.4333 9.35 31.2C9.91667 30.9333 10.3667 30.4 10.7 29.6C11.0333 28.8 11.4333 27.5667 11.9 25.9C12.1333 25.1 12.3667 24.3 12.6 23.5C12.8333 22.7 13.0167 21.9 13.15 21.1C13.2167 20.9 13.2667 20.5333 13.3 20C13.3667 19.4667 13.3833 19.0833 13.35 18.85C13.25 17.2833 13.0333 15.8167 12.7 14.45C12.4 13.0833 12.1167 11.9667 11.85 11.1C11.5833 10.0667 11.2833 9.15 10.95 8.35C10.6167 7.55 10.2833 6.85 9.95 6.25C9.15 4.78333 8.26667 3.78333 7.3 3.25C6.36667 2.71667 5.25 2.45 3.95 2.45C3.51667 2.45 3.05 2.5 2.55 2.6C2.08333 2.66667 1.56667 2.7 1 2.7H0.9C0.766667 2.7 0.7 2.65 0.7 2.55C0.7 2.41667 0.783333 2.26666 0.95 2.1C1.11667 1.93333 1.28333 1.85 1.45 1.85C3.11667 1.78333 4.75 1.66667 6.35 1.5C7.98333 1.3 9.61667 1.13333 11.25 0.999998C11.35 0.999998 11.45 0.999998 11.55 0.999998C11.6833 0.966665 11.8167 0.949998 11.95 0.949998C12.3167 0.949998 12.7167 1.1 13.15 1.4C13.6167 1.66667 14.0667 2.25 14.5 3.15C14.9667 4.05 15.4167 5.43333 15.85 7.3C16.2833 9.16667 16.65 11.7 16.95 14.9C17.0167 15.4333 17.1 15.8 17.2 16C17.3333 16.2 17.4667 16.3 17.6 16.3C17.7667 16.3 17.9333 16.2167 18.1 16.05C18.3 15.85 18.4667 15.6833 18.6 15.55C19.3667 14.6833 20.2167 13.5333 21.15 12.1C22.0833 10.6333 22.9167 9.23333 23.65 7.9C24.1167 7.03333 24.45 6.3 24.65 5.7C24.8833 5.06667 25 4.53333 25 4.1C25 3.3 24.7333 2.76666 24.2 2.5C23.6667 2.23333 23.0333 2.1 22.3 2.1C21.6 2.1 20.95 2.1 20.35 2.1H20.2C20.1 2.1 20.05 2.06667 20.05 2C20.05 1.86667 20.1667 1.7 20.4 1.5C20.6333 1.3 20.8167 1.23333 20.95 1.3C22.9167 1.33333 24.4333 1.38333 25.5 1.45C26.5667 1.48333 27.4833 1.5 28.25 1.5C29.2167 1.5 30.3167 1.48333 31.55 1.45C32.8167 1.38333 34.05 1.35 35.25 1.35C35.3833 1.35 35.45 1.4 35.45 1.5C35.45 1.63333 35.3667 1.8 35.2 2C35.0333 2.2 34.8667 2.28333 34.7 2.25C34.5 2.25 34.0333 2.3 33.3 2.4C32.6 2.46667 31.7667 2.76667 30.8 3.3C29.8333 3.8 28.8333 4.71666 27.8 6.05C27.0333 7.05 26.0833 8.28333 24.95 9.75C23.8167 11.2167 22.6667 12.7667 21.5 14.4C20.3667 16 19.35 17.5333 18.45 19C18.25 19.3333 18.0667 19.6833 17.9 20.05C17.7667 20.3833 17.65 20.75 17.55 21.15C17.1167 22.95 16.8 24.5 16.6 25.8C16.4333 27.1 16.3167 28.1833 16.25 29.05C16.15 29.85 16.3167 30.4167 16.75 30.75C17.2167 31.0833 17.5833 31.2833 17.85 31.35C18.2167 31.3833 18.7833 31.4167 19.55 31.45C20.35 31.4833 21.1333 31.5167 21.9 31.55C22.6667 31.55 23.1667 31.55 23.4 31.55H23.45C23.5833 31.55 23.65 31.6 23.65 31.7C23.65 31.8333 23.5667 31.9833 23.4 32.15C23.2333 32.2833 23.05 32.35 22.85 32.35C21.55 32.35 20.0167 32.3167 18.25 32.25C16.5167 32.1833 14.8667 32.15 13.3 32.15C12.9 32.15 12.5167 32.15 12.15 32.15C11.7833 32.15 11.4333 32.1667 11.1 32.2C10.6 32.2 9.86667 32.2167 8.9 32.25C7.93333 32.2833 6.86667 32.3167 5.7 32.35C4.53333 32.35 3.41667 32.35 2.35 32.35H2.3ZM45.9723 33.15C44.3389 33.15 42.7723 32.9 41.2723 32.4C39.8056 31.9 38.6056 31.0833 37.6723 29.95C36.7389 28.8167 36.2723 27.3167 36.2723 25.45C36.2723 25.0167 36.2889 24.5667 36.3223 24.1C36.3889 23.6333 36.4889 23.15 36.6223 22.65C37.2889 19.6833 37.9223 16.7333 38.5223 13.8C39.1223 10.8333 39.6723 7.88333 40.1723 4.95C40.2723 4.28333 40.1556 3.71667 39.8223 3.25C39.4889 2.75 39.0889 2.46667 38.6223 2.4C38.2889 2.33333 37.7223 2.28333 36.9223 2.25C36.1556 2.21666 35.3889 2.2 34.6223 2.2C33.8889 2.16666 33.3889 2.16666 33.1223 2.2C32.9556 2.2 32.8723 2.13333 32.8723 2C32.8723 1.86667 32.9556 1.73333 33.1223 1.6C33.2889 1.43333 33.4556 1.35 33.6223 1.35C34.9556 1.35 36.5056 1.38333 38.2723 1.45C40.0723 1.51667 41.7389 1.55 43.2723 1.55C43.6723 1.55 44.0556 1.55 44.4223 1.55C44.7889 1.55 45.1389 1.53333 45.4723 1.5C46.0389 1.46666 46.8556 1.45 47.9223 1.45C48.9889 1.41666 50.0556 1.36667 51.1223 1.3C51.3889 1.3 51.5223 1.45 51.5223 1.75C51.5223 1.88333 51.4889 2 51.4223 2.1C51.3556 2.16666 51.2389 2.18333 51.0723 2.15C49.7723 2.08333 48.7556 2.13333 48.0223 2.3C47.2889 2.46667 46.7056 2.86667 46.2723 3.5C45.8723 4.13333 45.4556 5.13333 45.0223 6.5C44.6223 7.86667 44.2223 9.4 43.8223 11.1C43.4223 12.7667 43.0389 14.4667 42.6723 16.2C42.3389 17.9 42.0223 19.5333 41.7223 21.1C41.4556 22.6667 41.2223 24 41.0223 25.1C40.9889 25.3333 40.9556 25.55 40.9223 25.75C40.9223 25.95 40.9223 26.15 40.9223 26.35C40.9223 27.9833 41.4556 29.2333 42.5223 30.1C43.5889 30.9667 44.8056 31.4333 46.1723 31.5C46.2723 31.5 46.4723 31.5167 46.7723 31.55C47.1056 31.55 47.4389 31.55 47.7723 31.55C48.1056 31.5167 48.3056 31.5 48.3723 31.5C49.8056 31.4333 51.1889 30.95 52.5223 30.05C53.8556 29.15 54.7389 27.8 55.1723 26C55.7056 23.8667 56.2389 21.5167 56.7723 18.95C57.3056 16.35 57.8056 13.7667 58.2723 11.2C58.7723 8.6 59.2056 6.25 59.5723 4.15C59.6723 3.51667 59.5389 3.05 59.1723 2.75C58.8389 2.41667 58.5223 2.21667 58.2223 2.15C57.9889 2.08333 57.7723 2.05 57.5723 2.05C57.3723 2.05 57.1889 2.05 57.0223 2.05C56.8556 2.05 56.6889 2.05 56.5223 2.05C56.3556 2.05 56.1723 2.06667 55.9723 2.1C55.8056 2.1 55.7223 2.05 55.7223 1.95C55.7223 1.81667 55.8056 1.68333 55.9723 1.55C56.1723 1.38333 56.3389 1.3 56.4723 1.3C57.5389 1.36667 58.3223 1.41666 58.8223 1.45C59.3556 1.48333 59.9223 1.5 60.5223 1.5C60.8223 1.5 61.1556 1.5 61.5223 1.5C61.8889 1.46666 62.3389 1.45 62.8723 1.45C63.3723 1.45 64.1056 1.45 65.0723 1.45C66.0389 1.41666 67.1056 1.4 68.2723 1.4C69.4389 1.36667 70.5556 1.35 71.6223 1.35C71.7223 1.35 71.7723 1.38333 71.7723 1.45C71.7723 1.58333 71.6889 1.76667 71.5223 2C71.3556 2.2 71.2056 2.28333 71.0723 2.25C69.5723 2.21666 68.3723 2.31666 67.4723 2.55C66.6056 2.78333 65.9056 3.3 65.3723 4.1C64.8723 4.9 64.4056 6.15 63.9723 7.85C63.6389 9.05 63.2556 10.6333 62.8223 12.6C62.3889 14.5333 61.9723 16.4833 61.5723 18.45C61.4056 19.4833 61.2389 20.5667 61.0723 21.7C60.9389 22.8333 60.7223 23.9667 60.4223 25.1C59.8889 27.2333 59.0556 28.8833 57.9223 30.05C56.7889 31.2167 55.3889 32.0333 53.7223 32.5C52.0889 32.9333 50.2056 33.15 48.0723 33.15H45.9723ZM69.598 32.35C69.498 32.35 69.448 32.3 69.448 32.2C69.448 32.0667 69.5314 31.9167 69.698 31.75C69.8647 31.55 70.0147 31.4667 70.148 31.5C70.648 31.5 71.1147 31.5167 71.548 31.55C72.0147 31.55 72.4314 31.55 72.798 31.55C73.998 31.55 74.9314 31.5 75.598 31.4C76.298 31.2667 76.8314 31.0167 77.198 30.65C77.598 30.25 77.9314 29.6667 78.198 28.9C78.4647 28.1333 78.7647 27.1167 79.098 25.85C79.9314 22.85 80.6647 19.8167 81.298 16.75C81.9647 13.65 82.5647 10.5667 83.098 7.5C83.1647 7.13333 83.2147 6.78333 83.248 6.45C83.3147 6.11667 83.348 5.83333 83.348 5.6C83.348 4.73333 83.0647 4.16667 82.498 3.9C81.9647 3.63333 81.0147 3.5 79.648 3.5C77.648 3.5 75.998 4.15 74.698 5.45C73.398 6.71667 72.298 8.45 71.398 10.65C71.3647 10.75 71.298 10.8 71.198 10.8C71.1314 10.8 71.048 10.75 70.948 10.65C70.8814 10.5167 70.8647 10.3833 70.898 10.25C71.0647 9.85 71.248 9.31667 71.448 8.65C71.648 7.95 71.898 7.2 72.198 6.4C72.5647 5.43333 72.8814 4.55 73.148 3.75C73.448 2.91667 73.8314 2.25 74.298 1.75C74.7647 1.25 75.448 1.03333 76.348 1.1C77.6147 1.2 79.2147 1.31666 81.148 1.45C83.1147 1.55 85.1647 1.6 87.298 1.6C88.498 1.6 89.5647 1.58333 90.498 1.55C91.4647 1.51666 92.448 1.46666 93.448 1.4C94.448 1.33333 95.648 1.26667 97.048 1.2C97.9147 1.13333 98.5147 1.25 98.848 1.55C99.1814 1.81666 99.348 2.28333 99.348 2.95C99.348 3.35 99.298 3.83333 99.198 4.4C99.0647 5.16667 98.948 5.85 98.848 6.45C98.7814 7.05 98.7147 7.66667 98.648 8.3C98.6147 8.93333 98.5314 9.7 98.398 10.6C98.3647 10.8 98.248 10.9 98.048 10.9C97.948 10.9 97.848 10.8333 97.748 10.7C97.6814 10.5667 97.6647 10.3833 97.698 10.15C97.798 9.48333 97.848 8.9 97.848 8.4C97.848 6.73333 97.4647 5.58333 96.698 4.95C95.9314 4.28333 94.9314 3.95 93.698 3.95C92.098 3.95 90.9147 4.13333 90.148 4.5C89.3814 4.86667 88.8647 5.26667 88.598 5.7C88.3314 6.1 88.098 6.41667 87.898 6.65C87.798 6.78333 87.6314 7.31667 87.398 8.25C87.1647 9.18333 86.898 10.3667 86.598 11.8C86.298 13.2333 85.998 14.75 85.698 16.35C85.398 17.95 85.1147 19.5 84.848 21C84.5814 22.5 84.3647 23.7833 84.198 24.85C84.0314 25.9167 83.948 26.6167 83.948 26.95C83.948 27.15 83.9314 27.4167 83.898 27.75C83.8647 28.05 83.848 28.3833 83.848 28.75C83.848 29.3167 83.9314 29.85 84.098 30.35C84.2647 30.85 84.6314 31.15 85.198 31.25C85.4647 31.2833 85.9147 31.3167 86.548 31.35C87.2147 31.3833 87.948 31.4167 88.748 31.45C89.5814 31.4833 90.3647 31.5 91.098 31.5C91.8314 31.5 92.3814 31.4833 92.748 31.45C92.9147 31.45 92.998 31.5167 92.998 31.65C92.998 31.7833 92.9147 31.9333 92.748 32.1C92.5814 32.2667 92.4147 32.35 92.248 32.35C91.3814 32.35 90.2814 32.3333 88.948 32.3C87.6147 32.2667 86.2147 32.2333 84.748 32.2C83.3147 32.1667 81.9814 32.15 80.748 32.15C80.3147 32.15 79.8814 32.15 79.448 32.15C79.048 32.15 78.6814 32.1667 78.348 32.2C77.8814 32.2 77.1647 32.2167 76.198 32.25C75.2314 32.2833 74.1647 32.3167 72.998 32.35C71.8314 32.35 70.7147 32.35 69.648 32.35H69.598ZM96.0133 32.35C95.9133 32.35 95.8633 32.3 95.8633 32.2C95.8633 32.0667 95.9466 31.9167 96.1133 31.75C96.3133 31.55 96.4799 31.4667 96.6133 31.5C97.4133 31.5 98.1299 31.5167 98.7633 31.55C99.3966 31.55 99.9466 31.55 100.413 31.55C101.613 31.55 102.497 31.4333 103.063 31.2C103.63 30.9333 104.08 30.4 104.413 29.6C104.747 28.8 105.147 27.5667 105.613 25.9C106.647 22.2667 107.497 18.7833 108.163 15.45C108.83 12.0833 109.463 8.58333 110.063 4.95C110.097 4.85 110.113 4.7 110.113 4.5C110.113 3.93333 109.947 3.46667 109.613 3.1C109.28 2.7 108.93 2.46667 108.563 2.4C108.23 2.33333 107.663 2.28333 106.863 2.25C106.097 2.21666 105.33 2.2 104.563 2.2C103.797 2.16666 103.297 2.16666 103.063 2.2C102.897 2.2 102.813 2.13333 102.813 2C102.813 1.86667 102.897 1.73333 103.063 1.6C103.23 1.43333 103.397 1.35 103.563 1.35C104.863 1.35 106.38 1.38333 108.113 1.45C109.847 1.51667 111.48 1.55 113.013 1.55C113.413 1.55 113.78 1.55 114.113 1.55C114.48 1.55 114.83 1.53333 115.163 1.5C115.73 1.46666 116.613 1.43333 117.813 1.4C119.047 1.36667 120.33 1.35 121.663 1.35C122.097 1.35 122.513 1.36667 122.913 1.4C123.347 1.4 123.747 1.4 124.113 1.4H124.163C124.263 1.4 124.313 1.45 124.313 1.55C124.313 1.68333 124.23 1.85 124.063 2.05C123.897 2.21667 123.747 2.28333 123.613 2.25C122.78 2.25 122.03 2.23333 121.363 2.2C120.73 2.16666 120.147 2.15 119.613 2.15C118.447 2.15 117.563 2.28333 116.963 2.55C116.363 2.78333 115.897 3.31666 115.563 4.15C115.23 4.95 114.83 6.18333 114.363 7.85C114.097 8.88333 113.78 10.1667 113.413 11.7C113.08 13.2333 112.73 14.8667 112.363 16.6C111.997 18.3 111.647 19.9833 111.313 21.65C111.013 23.3167 110.747 24.8333 110.513 26.2C110.28 27.5333 110.13 28.5833 110.063 29.35C109.997 29.9833 110.13 30.4667 110.463 30.8C110.797 31.1 111.113 31.2833 111.413 31.35C111.747 31.3833 112.297 31.4167 113.063 31.45C113.863 31.4833 114.647 31.5167 115.413 31.55C116.18 31.55 116.68 31.55 116.913 31.55H116.963C117.13 31.55 117.213 31.6 117.213 31.7C117.213 31.8333 117.13 31.9833 116.963 32.15C116.797 32.2833 116.613 32.35 116.413 32.35C115.08 32.35 113.547 32.3167 111.813 32.25C110.113 32.1833 108.497 32.15 106.963 32.15C106.563 32.15 106.18 32.15 105.813 32.15C105.48 32.15 105.147 32.1667 104.813 32.2C104.313 32.2 103.563 32.2167 102.563 32.25C101.597 32.2833 100.53 32.3167 99.3633 32.35C98.2299 32.35 97.1299 32.35 96.0633 32.35H96.0133Z" fill="#9B5CFF"/>
</svg>
