<svg width="256" height="256" viewBox="0 0 256 256" fill="none" xmlns="http://www.w3.org/2000/svg">
<path d="M131.885 41.8708C133.159 41.7168 134.571 41.7887 135.853 41.8367C153.368 42.4931 168.542 53.9586 172.692 71.3291C174.614 79.3751 173.999 83.7511 171.318 91.2196C166.991 103.272 160.889 114.808 154.205 125.705C165.897 127.068 177.15 121.089 188.742 121.943C201.042 122.849 209.173 125.698 219.41 132.465C221.463 133.822 223.925 135.232 225.539 137.091C223.525 146.758 217.294 158.136 216.993 167.251C216.597 179.22 227.719 192.654 226.62 201.76C225.941 207.386 220.851 208.154 216.379 208.821L207.964 210.036C178.635 213.985 158.045 215.125 129.029 211.552C127.664 211.143 121.727 210.879 119.969 210.771C97.7922 209.414 75.7567 214.113 53.5752 213.948C47.8735 213.905 33.2589 214.207 30.4538 209.872C28.3486 206.617 30.5393 204.66 30.7804 201.883C31.0459 198.826 31.0733 195.751 31.3734 192.692C33.5139 170.876 38.1705 152.85 43.7956 131.82C47.9282 116.369 45.7354 112.406 64.9837 119.003C75.4082 122.575 83.4737 124.772 94.5417 123.58C101.475 122.834 105.714 121.315 112.681 122.907C111.201 119.502 108.832 116.364 107.007 113.123C101.415 103.186 94.1302 87.8251 95.2412 76.1991C97.1672 56.0456 112.399 44.2788 131.885 41.8708ZM110.77 127.137C108.684 130.308 107.961 131.5 104.16 132.646C98.7867 134.267 98.2217 140.153 92.4597 141.352C89.8112 141.903 87.4962 140.918 84.9707 141.155C82.4952 141.387 79.2437 143.565 76.0617 144.06C72.1842 144.663 66.3857 142.221 63.6757 146.161C62.5392 147.813 61.9622 149.794 60.8172 151.448C59.2667 153.687 56.4712 155.494 57.1112 158.556C58.7232 166.267 73.1852 170.815 68.4382 178.162C64.2937 184.576 57.4522 179.335 53.9742 175.105C52.3517 174.919 44.5804 167.786 39.7192 166.274C38.5781 168.226 38.2572 170.83 37.772 173.012C36.8287 177.489 33.1402 190.322 33.252 194.1L33.2605 194.231C33.4541 197.681 32.6002 201.572 35.5276 204.201C39.1423 207.446 50.7552 208.613 56.3202 208.938C57.6677 209.27 58.9727 209.509 60.0427 210.469C62.6297 209.876 65.0522 209.5 67.7182 209.24L82.6892 207.708C93.8257 206.673 106.415 205.488 117.625 206.007C120.159 206.124 122.745 206.389 125.28 206.299L125.532 206.289C128.096 207.051 131.123 207.034 133.789 207.401C155.825 210.429 177.821 209.273 199.81 206.401C202.548 206.043 205.381 205.482 208.146 205.6C214.923 203.183 223.929 206.471 221.444 197.074C220.58 193.459 218.643 188.574 216.999 185.308C216.461 188.642 216.608 195.313 213.135 197.074C209.721 197.692 207.656 190.768 206.601 188.465C203.762 182.269 202.759 182.893 198.916 178.192C197.097 175.967 196.12 173.221 194.659 170.77C193.704 170.04 192.581 168.005 191.17 166.905C189.045 165.249 186.133 165.061 183.78 163.821C173.29 158.295 184.178 147.563 182.02 141.157C180.222 135.822 172.08 135.298 170.011 128.755C163.595 129.611 159.486 129.474 153.447 129.917C152.751 129.914 152.054 129.904 151.358 129.917C150.92 131.399 149.93 132.778 149.148 134.108C145.308 140.644 141.936 147.218 138.821 154.143C137.062 156.784 136.415 160.051 134.72 162.674C133.239 163.312 130.598 154.926 129.897 153.568L129.841 153.461C127.372 147.838 124.73 142.275 121.417 137.091C119.788 134.107 117.267 131.368 116.134 128.172C114.352 127.797 112.553 127.506 110.77 127.137ZM124.855 47.3147L124.581 47.7066C124.768 47.9015 124.669 47.8403 124.855 47.9222C123.473 48.0806 122.228 48.3215 120.965 48.9277L120.59 48.3336C115.099 50.8841 104.115 58.3761 102.443 64.6596C102.742 65.5476 101.817 66.8851 101.506 67.7436C96.7982 80.7401 102.768 92.6816 108.72 104.165C114.553 115.422 121.146 125.798 127.192 136.808C129.437 140.895 130.833 145.331 132.837 149.514C133.128 148.712 132.988 147.7 133.209 146.842C134.949 140.1 139.848 131.934 143.353 125.989C150.985 113.046 166.326 90.1871 164.206 74.4006C162.927 64.8811 157.124 56.8916 148.816 52.2756C146.624 51.0576 139.996 48.0104 137.666 48.3336C136.168 47.9725 134.657 47.6621 133.156 47.3147C132.076 47.1571 129.342 46.9676 128.52 46.5625L128.608 46.4812L128.59 46.3376C127.292 46.5513 126.085 46.8427 124.855 47.3147ZM102.443 64.6596C96.6712 76.2791 98.0462 82.0556 101.83 93.3111C108.761 113.926 123.566 130.28 132.28 149.855C132.887 151.219 133.425 153.14 134.2 154.355L134.33 154.378L134.417 154.143C134.213 152.668 133.353 150.938 132.837 149.514C130.833 145.331 129.437 140.895 127.192 136.808C121.146 125.798 114.553 115.422 108.72 104.165C102.768 92.6816 96.7982 80.7401 101.506 67.7436C101.817 66.8851 102.742 65.5476 102.443 64.6596Z" fill="black"/>
<path d="M120.59 48.3334C122.104 47.7819 123.231 47.3823 124.854 47.3145L124.581 47.7064C124.767 47.9013 124.669 47.8401 124.854 47.9219C123.473 48.0804 122.228 48.3212 120.965 48.9275L120.59 48.3334Z" fill="#FE201E"/>
<path d="M175.521 127.719C177.701 127.414 179.841 126.846 182.027 126.57L182.135 126.728C180.658 127.071 179.599 127.495 178.197 128.172C177.101 129.926 177.723 130.113 178.197 131.82C176.708 130.96 175.833 129.365 175.521 127.719Z" fill="#FEFEFE"/>
<path d="M39.7192 164.732C47.8338 168.601 48.6915 165.75 53.9742 175.104C52.3517 174.918 44.5804 167.786 39.7192 166.273C39.7615 165.746 39.7864 165.259 39.7192 164.732Z" fill="#FEFEFE"/>
<path d="M33.2519 194.1L33.2604 194.23C33.4539 197.68 32.6001 201.572 35.5275 204.2C39.1422 207.446 50.755 208.612 56.32 208.938C57.6675 209.27 58.9725 209.509 60.0425 210.468C53.5975 209.911 34.0462 213.423 31.5421 208.106C30.3468 205.568 32.2697 196.872 33.2519 194.1Z" fill="#FEFEFE"/>
<path d="M170.011 128.755C171.274 128.43 172.448 128.234 173.748 128.172C175.098 137.306 184.447 134.919 185.612 143.027C186.485 149.099 179.31 150.389 182.39 157.488C185.679 165.072 193.675 162.331 196.027 168.79C198.537 181.926 200.648 176.688 205.587 181.979C209.014 185.65 206.663 192.826 213.135 197.074C209.721 197.692 207.656 190.768 206.601 188.465C203.762 182.269 202.759 182.893 198.916 178.192C197.097 175.967 196.12 173.221 194.659 170.77C193.704 170.04 192.581 168.005 191.17 166.905C189.045 165.249 186.133 165.061 183.78 163.821C173.29 158.295 184.178 147.563 182.02 141.157C180.222 135.822 172.08 135.298 170.011 128.755Z" fill="#FEFEFE"/>
<path d="M182.026 126.569C182.781 126.359 183.56 126.256 184.332 126.131C184.647 132.023 189.658 131.415 191.542 136.179C192.989 139.835 193.528 158.459 192.434 161.921C176.907 157.29 188.428 149.688 188.156 144.209C187.687 134.748 182.238 135.848 178.196 131.819C177.723 130.111 177.101 129.925 178.196 128.171C179.599 127.494 180.658 127.069 182.134 126.726L182.026 126.569Z" fill="#F6FCEA"/>
<path d="M42.3916 154.143C44.3333 146.822 46.452 139.548 48.5145 132.261C52.5989 117.83 50.2839 119.286 65.3374 124.409C76.2234 128.114 84.4604 129.598 96.2259 128.182C100.051 127.722 103.769 127.127 107.634 127.137C104.837 130.428 102.416 129.523 99.2289 131.819C99.0249 131.222 99.1084 130.473 98.7729 129.965C96.6704 129.845 87.3599 132.736 84.9719 133.413C81.0474 134.526 77.6479 135.649 73.4964 135.155C67.8069 134.478 62.8079 132.137 57.6479 136.748C52.1669 141.646 54.3379 151.2 42.3916 154.143Z" fill="#FCEF37"/>
<path d="M128.59 46.3367C129.729 45.995 131.003 45.9416 132.187 45.8427C148.098 44.512 163.828 54.7442 168.443 70.1742C170.773 77.9652 170.217 83.4402 167.53 90.7932C160.964 108.759 151.323 122.093 142.415 138.321C139.61 143.43 137.371 149.228 134.417 154.142C134.213 152.667 133.353 150.937 132.837 149.513C133.128 148.711 132.988 147.699 133.209 146.841C134.949 140.099 139.848 131.933 143.353 125.988C150.985 113.045 166.326 90.1862 164.206 74.3997C162.927 64.8802 157.124 56.8907 148.816 52.2747C146.624 51.0567 139.996 48.0095 137.666 48.3327C136.168 47.9715 134.657 47.6611 133.156 47.3138C132.076 47.1561 129.342 46.9666 128.52 46.5615L128.608 46.4803L128.59 46.3367Z" fill="#FE201E"/>
<path d="M42.3915 154.143C54.3378 151.2 52.1668 141.646 57.6478 136.748C62.8078 132.137 67.8068 134.478 73.4963 135.155C77.6478 135.649 81.0473 134.526 84.9718 133.413C87.3598 132.736 96.6703 129.845 98.7728 129.965C99.1083 130.473 99.0248 131.222 99.2288 131.819C95.7883 134.73 95.0398 139.506 89.4683 139.036C87.8268 138.897 86.2923 138.336 84.6178 138.525C81.7263 138.85 79.0563 140.914 75.8663 141.449C71.2818 142.218 66.9718 139.803 62.7358 143.151C60.6313 144.815 60.3558 147.069 59.0283 149.188C57.3628 151.847 54.6143 153.474 54.2908 156.839C53.4208 165.887 66.8933 170.653 66.5153 175.466C66.3748 177.258 64.4328 178.66 62.6958 178.427C56.2228 177.558 54.8473 167.268 48.1508 164.893C44.939 163.754 43.5423 163.239 40.397 161.922C41.0584 159.379 41.9335 156.721 42.3915 154.143Z" fill="#FFED7D"/>
<path d="M184.333 126.132C198.984 125.974 212.137 129.635 224.754 137.091C223.959 138.969 223.042 140.795 222.147 142.627C218.191 151.012 213.77 159.273 213.781 168.79C213.63 173.903 215.1 178.414 216.562 183.227C214.383 186.818 214.752 191.175 213.135 194.937C209.504 191.5 210.423 186.157 208.22 181.993C206.505 178.752 202.543 178.079 200.491 175.207C197.156 170.539 200.376 164.443 192.434 161.922C193.528 158.46 192.989 139.836 191.543 136.18C189.658 131.416 184.647 132.024 184.333 126.132Z" fill="#FCEF37"/>
<path d="M213.781 168.79C205.307 164.361 207.114 160.206 202.511 155.749C200.907 154.197 197.54 153.177 196.756 151.059C195.337 147.228 201.335 143.206 203.369 140.702C204.137 139.757 205.26 136.143 206.337 135.863C208.999 135.172 218.725 140.77 222.147 142.627C218.191 151.012 213.77 159.273 213.781 168.79Z" fill="#3FEBA7"/>
<path d="M124.855 47.315C126.085 46.843 127.292 46.5516 128.59 46.3379L128.608 46.4815L128.52 46.5627C129.342 46.9678 132.076 47.1573 133.156 47.315C134.657 47.6623 136.168 47.9727 137.666 48.3339C139.996 48.0107 146.624 51.0579 148.816 52.2759C157.124 56.8919 162.927 64.8814 164.206 74.4009C166.326 90.1874 150.985 113.046 143.353 125.989C139.848 131.934 134.949 140.1 133.209 146.842C132.988 147.7 133.128 148.712 132.837 149.514C130.833 145.331 129.437 140.895 127.192 136.808C121.146 125.798 114.553 115.422 108.72 104.165C102.768 92.6819 96.7982 80.7404 101.506 67.7439C101.817 66.8854 102.742 65.5479 102.443 64.6599C104.115 58.3764 115.099 50.8844 120.59 48.3339L120.965 48.928C122.228 48.3217 123.473 48.0809 124.855 47.9224C124.669 47.8406 124.768 47.9018 124.581 47.7069L124.855 47.315ZM130.999 136.272C128.303 136.94 129.313 141.26 131.885 140.668C134.138 139.191 134.258 136.428 130.999 136.272Z" fill="#FD5B5B"/>
<path d="M133.156 47.3145C134.657 47.6618 136.168 47.9722 137.666 48.3334C141.671 53.5249 128.414 51.8559 131.407 48.1385C131.871 47.5613 132.445 47.3869 133.156 47.3145Z" fill="#FEFEFE"/>
<path d="M124.854 47.9223C126.773 47.7915 130.669 48.5569 128.008 50.6728C127.516 51.0638 120.44 53.3778 119.284 53.6893C115.927 52.3693 119.101 49.9505 120.965 48.9279C122.228 48.3216 123.473 48.0808 124.854 47.9223Z" fill="#FEFEFE"/>
<path d="M113.196 56.3496C114.138 56.3721 115.386 57.1686 115.315 58.2206C113.977 61.1236 109.743 63.1571 107.571 68.8216C106.943 70.4586 106.517 73.8226 105.037 74.7836C98.4648 74.8261 107.012 59.2871 113.196 56.3496Z" fill="#FEFEFE"/>
<path d="M132.247 59.6247C136.692 59.2507 141.346 60.0057 145.249 62.2112C154.06 67.1912 159.014 80.9567 153.803 90.0352C150.254 96.2192 144.82 98.6257 138.362 100.376C107.635 101.88 107.009 62.7127 132.247 59.6247Z" fill="black"/>
<path d="M132.837 62.632C142.703 61.5885 151.252 68.7665 151.469 78.75C151.668 87.879 144.28 96.226 135.027 96.384C116.059 96.618 105.047 66.3 132.837 62.632Z" fill="#FEFEFE"/>
<path d="M110.77 127.137C112.553 127.505 114.352 127.796 116.134 128.171C117.267 131.367 119.788 134.106 121.417 137.09C124.73 142.274 127.372 147.837 129.841 153.46L129.897 153.567C130.598 154.925 133.239 163.312 134.72 162.674C136.415 160.051 137.062 156.783 138.821 154.143C141.936 147.217 145.308 140.644 149.148 134.108C149.93 132.778 150.92 131.399 151.358 129.917C152.054 129.903 152.751 129.914 153.447 129.917C159.486 129.474 163.595 129.611 170.011 128.754C172.08 135.297 180.222 135.821 182.02 141.156C184.178 147.563 173.29 158.294 183.78 163.821C186.133 165.061 189.045 165.249 191.17 166.904C192.581 168.004 193.704 170.04 194.659 170.769C196.12 173.221 197.097 175.966 198.916 178.192C202.759 182.892 203.762 182.268 206.601 188.464C207.656 190.767 209.721 197.692 213.135 197.073C216.608 195.312 216.461 188.641 216.999 185.308C218.643 188.573 220.58 193.458 221.444 197.073C223.929 206.471 214.923 203.183 208.146 205.599C205.381 205.481 202.548 206.043 199.81 206.4C177.821 209.273 155.825 210.428 133.789 207.4C131.123 207.034 128.096 207.051 125.532 206.288L125.28 206.298C122.745 206.389 120.159 206.124 117.625 206.006C106.415 205.488 93.8257 206.673 82.6892 207.707L67.7182 209.239C65.0522 209.499 62.6297 209.876 60.0427 210.468C58.9727 209.509 57.6677 209.27 56.3202 208.938C50.7552 208.612 39.1423 207.446 35.5276 204.2C32.6002 201.572 33.4541 197.68 33.2605 194.23L33.252 194.1C33.1402 190.321 36.8287 177.488 37.772 173.012C38.2572 170.829 38.5781 168.225 39.7192 166.273C44.5804 167.786 52.3517 174.918 53.9742 175.104C57.4522 179.335 64.2937 184.575 68.4382 178.161C73.1852 170.815 58.7232 166.267 57.1112 158.555C56.4712 155.493 59.2667 153.687 60.8172 151.447C61.9622 149.794 62.5392 147.813 63.6757 146.16C66.3857 142.22 72.1842 144.663 76.0617 144.06C79.2437 143.565 82.4951 141.387 84.9706 141.154C87.4962 140.917 89.8112 141.903 92.4597 141.352C98.2217 140.152 98.7867 134.267 104.16 132.646C107.961 131.499 108.684 130.308 110.77 127.137ZM69.8222 184.128C63.9627 187.483 56.6757 195.378 60.7202 202.452C62.2872 205.192 64.4907 207.794 67.7182 208.296H68.5686C70.4316 207.922 72.2081 205.167 73.5592 203.933C76.7102 201.053 77.5742 201.547 79.3817 197.436C85.6027 183.286 96.4292 192.562 106.158 195.216C116.723 198.099 118.725 194.32 125.532 206.288C128.096 207.051 131.123 207.034 133.789 207.4C155.825 210.428 177.821 209.273 199.81 206.4C202.548 206.043 205.381 205.481 208.146 205.599C205.996 204.296 203.049 204.44 200.634 204.016C189.335 202.028 190.672 201.935 179.161 206.389C172.841 208.834 163.432 203.435 156.335 204.73C152.801 205.375 150.803 206.719 147.012 206.019C140.379 204.793 132.255 200.748 128.219 195.066C126.643 192.845 125.569 190.141 123.595 188.236C120.978 185.71 117.234 184.675 114.282 182.613C108.772 178.764 106.454 174.215 99.1347 171.023C85.9142 165.257 80.3042 180.027 69.8222 184.128Z" fill="#3FEBA7"/>
<path d="M129.841 153.461L129.897 153.568C130.598 154.926 133.239 163.312 134.72 162.674C136.415 160.051 137.062 156.784 138.821 154.143C143.595 154.724 146.59 154.99 150.968 157.801C153.662 159.53 155.783 162.32 153.615 165.363C144.703 177.87 106.118 170.075 114.329 159.543C117.749 155.156 124.69 154.116 129.841 153.461Z" fill="#0476F4"/>
<path d="M68.5683 208.296C65.2298 206.615 61.9913 202.585 61.8508 198.83C61.5618 191.122 68.3248 190.817 72.4933 187.967C79.0503 183.485 80.0593 176.492 90.1108 176.155C101.68 175.768 100.887 180.458 108.689 185.454C110.565 186.656 112.584 187.305 114.649 188.09C125.553 192.232 125.563 198.748 132.837 205.6C130.746 204.919 128.972 204.085 127.202 202.783C124.49 199.982 123.141 196.683 119.999 194.035C116.22 190.851 111.738 190.649 107.785 188.144C100.677 183.637 101.038 178.922 91.1393 178.795C81.5478 178.672 80.5463 185.732 74.2463 190.1C70.7533 192.521 64.5063 192.814 64.5368 198.385C64.5563 202.013 69.6788 205.885 68.5683 208.296Z" fill="black"/>
<path d="M68.5687 208.296C69.6792 205.885 64.5567 202.013 64.5372 198.385C64.5067 192.814 70.7537 192.521 74.2467 190.1C80.5467 185.732 81.5482 178.672 91.1397 178.795C101.038 178.922 100.678 183.637 107.786 188.144C111.738 190.649 116.221 190.851 119.999 194.035C123.141 196.683 124.491 199.982 127.203 202.783C126.732 203.996 126.13 205.135 125.532 206.289C118.725 194.32 116.723 198.099 106.158 195.216C96.4292 192.562 85.6027 183.287 79.3817 197.437C77.5742 201.547 76.7102 201.053 73.5592 203.933C72.2082 205.168 70.4317 207.923 68.5687 208.296Z" fill="#FCEF37"/>
</svg>
