<svg width="321" height="259" viewBox="0 0 321 259" fill="none" xmlns="http://www.w3.org/2000/svg">
<path d="M50 0L97.5528 34.5491L79.3893 90.4509H20.6107L2.44717 34.5491L50 0Z" fill="brown"/>
<path fill-rule="evenodd" clip-rule="evenodd" d="M79.736 167.792L58 152L10.4472 186.549L28.6107 242.451H59.5484L86.5277 258.027L130.209 218.697L106.301 165L79.736 167.792ZM83.3632 170.427L79.736 167.792L47.8447 171.144L35.624 228.638L59.5484 242.451H65.5484L86.1401 254.339L126.581 217.926L104.447 168.211L83.3632 170.427ZM83.3632 170.427L105.553 186.549L87.3893 242.451H65.5484L39.0116 227.13L50.326 173.9L83.3632 170.427Z" fill="brown"/>
<path d="M182.944 52.7099L186.929 53.1287L186.93 53.1282L186.826 54.1233L190.811 54.5421L190.915 53.5475L194.901 53.9658L194.902 53.9667L194.797 54.9609L198.783 55.3797L198.887 54.3855L198.887 54.3846L202.872 54.8034L202.873 54.8043L202.768 55.7985L206.754 56.2173L206.858 55.2231L206.858 55.2222L210.844 55.641L210.844 55.6419L210.741 56.6364L214.726 57.0552L214.83 56.0607L214.829 56.0598L218.815 56.4795L218.816 56.4803L218.712 57.474L222.697 57.8928L222.802 56.8986L222.802 56.8978L226.787 57.3166L226.788 57.3174L226.683 58.3116L230.668 58.7304L230.772 57.7367L234.758 58.1555L234.759 58.155L234.654 59.1501L238.64 59.5689L238.743 58.5743L242.729 58.9931L242.73 58.9926L242.625 59.9877L246.611 60.4065L246.716 59.4123L246.715 59.4114L250.701 59.8302L250.701 59.8311L250.597 60.8253L254.582 61.2441L254.687 60.2499L254.686 60.249L258.672 60.6678L258.672 60.6687L258.568 61.6637L262.554 62.0825L262.658 61.0875L262.658 61.0866L266.643 61.5054L266.644 61.5063L266.539 62.5013L267.809 62.6343L268.075 63.8845L269.052 63.6758L269.885 67.5958L268.908 67.8036L269.742 71.7236L270.719 71.5158L271.552 75.4358L270.575 75.6437L271.408 79.5637L272.386 79.3567L273.219 83.2767L272.241 83.4842L273.074 87.4042L274.051 87.1964L274.885 91.1164L273.908 91.3242L274.741 95.2442L275.718 95.0364L276.552 98.9564L275.574 99.1643L276.408 103.084L277.385 102.876L278.218 106.796L277.241 107.004L278.074 110.925L279.052 110.716L279.885 114.636L278.907 114.845L279.74 118.765L280.718 118.556L281.552 122.477L280.574 122.685L281.407 126.605L282.384 126.396L283.217 130.316L282.24 130.525L283.074 134.445L284.051 134.237L284.884 138.157L283.906 138.365L284.74 142.285L285.718 142.077L286.551 145.997L285.573 146.205L285.839 147.455L284.733 148.093L285.233 148.959L281.762 150.963L281.262 150.097L277.791 152.101L278.291 152.967L274.821 154.971L274.321 154.105L270.85 156.109L271.35 156.975L267.879 158.979L267.379 158.112L263.908 160.116L264.408 160.982L260.937 162.986L260.437 162.12L256.967 164.124L257.467 164.99L253.997 166.994L253.497 166.128L250.026 168.132L250.526 168.998L247.055 171.001L246.555 170.135L243.084 172.139L243.584 173.005L240.113 175.009L239.613 174.143L236.143 176.147L236.643 177.013L233.172 179.017L232.672 178.151L229.201 180.154L229.701 181.021L226.23 183.024L225.73 182.158L222.26 184.162L222.76 185.028L219.29 187.032L218.79 186.166L215.319 188.17L215.819 189.036L212.348 191.04L211.848 190.174L210.742 190.812L209.793 189.957L209.122 190.701L206.144 188.019L206.814 187.276L203.836 184.594L203.167 185.337L203.166 185.337L200.188 182.656L200.189 182.655L200.857 181.913L197.879 179.231L197.209 179.973L194.231 177.291L194.901 176.549L191.923 173.867L191.253 174.611L188.274 171.929L188.945 171.186L185.967 168.504L185.296 169.247L182.318 166.566L182.988 165.822L180.009 163.141L179.341 163.883L179.34 163.884L176.362 161.202L177.031 160.459L174.053 157.778L173.384 158.52L170.406 155.839L171.075 155.096L168.097 152.414L167.427 153.157L164.449 150.475L165.119 149.732L162.141 147.051L161.471 147.795L158.493 145.113L159.162 144.369L156.183 141.688L155.514 142.43L152.536 139.749L153.205 139.006L150.227 136.324L149.558 137.067L146.58 134.385L147.249 133.643L146.299 132.788L146.82 131.621L145.906 131.214L145.904 131.214L147.535 127.553L147.536 127.553L148.45 127.96L150.08 124.299L149.166 123.892L149.165 123.892L150.795 120.231L150.796 120.231L151.709 120.638L153.34 116.977L152.426 116.57L152.425 116.57L154.055 112.909L154.056 112.909L154.97 113.316L156.6 109.655L155.686 109.248L157.316 105.587L158.23 105.994L159.86 102.333L158.946 101.926L160.576 98.2645L161.489 98.6709L163.12 95.0099L162.206 94.6036L162.205 94.6032L163.835 90.9422L163.836 90.9426L164.75 91.3489L166.38 87.6879L165.467 87.2811L165.466 87.2807L167.095 83.6189L167.097 83.6193L168.01 84.0269L169.641 80.3654L168.727 79.9583L168.725 79.9579L170.356 76.2969L170.357 76.2973L171.27 76.7036L172.9 73.0426L171.987 72.6363L171.986 72.6359L173.616 68.9749L173.617 68.9753L174.53 69.3816L176.161 65.7206L175.247 65.3143L175.246 65.314L176.877 61.6525L177.791 62.0596L179.421 58.3986L178.507 57.9915L180.137 54.3305L181.051 54.7377L181.57 53.5698L182.84 53.7045L182.944 52.7099Z" stroke="brown" stroke-width="2" stroke-dasharray="4 4"/>
</svg>
