<svg width="969" height="440" viewBox="0 0 969 440" fill="none" xmlns="http://www.w3.org/2000/svg">
<path d="M914.29 0.6001H411C407.828 0.598283 404.734 1.58427 402.148 3.42111C399.563 5.25796 397.613 7.8545 396.57 10.8501C394.446 16.9825 390.463 22.3004 385.176 26.0642C379.889 29.828 373.56 31.8506 367.07 31.8506C360.58 31.8506 354.251 29.828 348.964 26.0642C343.677 22.3004 339.694 16.9825 337.57 10.8501C336.528 7.86577 334.587 5.27772 332.013 3.44213C329.44 1.60654 326.361 0.613643 323.2 0.6001H54.7C54.7 7.67919 53.3055 14.6889 50.5962 21.229C47.8868 27.7691 43.9157 33.7115 38.9096 38.7167C33.9034 43.7219 27.9604 47.6919 21.4197 50.4001C14.8791 53.1082 7.86913 54.5014 0.790039 54.5001V385.2C7.86913 385.199 14.8791 386.592 21.4197 389.3C27.9604 392.008 33.9034 395.978 38.9096 400.983C43.9157 405.989 47.8868 411.931 50.5962 418.471C53.3055 425.011 54.7 432.021 54.7 439.1H323.2C326.372 439.103 329.467 438.118 332.053 436.281C334.639 434.444 336.589 431.846 337.63 428.85C339.754 422.718 343.737 417.4 349.024 413.636C354.311 409.872 360.64 407.85 367.13 407.85C373.62 407.85 379.949 409.872 385.236 413.636C390.523 417.4 394.506 422.718 396.63 428.85C397.671 431.835 399.612 434.424 402.185 436.26C404.759 438.096 407.839 439.088 411 439.1H914.26C914.26 432.022 915.654 425.013 918.363 418.473C921.072 411.934 925.042 405.992 930.047 400.987C935.052 395.982 940.994 392.012 947.533 389.303C954.073 386.594 961.082 385.2 968.16 385.2V54.5001C953.87 54.4921 940.168 48.8099 930.066 38.7025C919.965 28.5952 914.29 14.8901 914.29 0.6001ZM364.51 47.4801C364.488 47.1244 364.539 46.768 364.66 46.4328C364.781 46.0976 364.969 45.7907 365.213 45.5311C365.457 45.2714 365.752 45.0645 366.079 44.923C366.406 44.7816 366.759 44.7086 367.115 44.7086C367.471 44.7086 367.824 44.7816 368.151 44.923C368.478 45.0645 368.773 45.2714 369.017 45.5311C369.261 45.7907 369.449 46.0976 369.57 46.4328C369.691 46.768 369.742 47.1244 369.72 47.4801V77.6901C369.742 78.0458 369.691 78.4022 369.57 78.7374C369.449 79.0726 369.261 79.3795 369.017 79.6391C368.773 79.8988 368.478 80.1057 368.151 80.2471C367.824 80.3886 367.471 80.4616 367.115 80.4616C366.759 80.4616 366.406 80.3886 366.079 80.2471C365.752 80.1057 365.457 79.8988 365.213 79.6391C364.969 79.3795 364.781 79.0726 364.66 78.7374C364.539 78.4022 364.488 78.0458 364.51 77.6901V47.4801ZM364.51 99.2201C364.488 98.8644 364.539 98.508 364.66 98.1728C364.781 97.8376 364.969 97.5307 365.213 97.2711C365.457 97.0114 365.752 96.8045 366.079 96.663C366.406 96.5216 366.759 96.4486 367.115 96.4486C367.471 96.4486 367.824 96.5216 368.151 96.663C368.478 96.8045 368.773 97.0114 369.017 97.2711C369.261 97.5307 369.449 97.8376 369.57 98.1728C369.691 98.508 369.742 98.8644 369.72 99.2201V129.43C369.721 129.945 369.568 130.448 369.283 130.876C368.997 131.304 368.591 131.638 368.115 131.835C367.64 132.032 367.117 132.084 366.612 131.983C366.107 131.882 365.644 131.634 365.28 131.27C365.035 131.031 364.841 130.744 364.708 130.428C364.576 130.112 364.509 129.773 364.51 129.43V99.2201ZM364.51 150.96C364.488 150.604 364.539 150.248 364.66 149.913C364.781 149.578 364.969 149.271 365.213 149.011C365.457 148.751 365.752 148.544 366.079 148.403C366.406 148.262 366.759 148.189 367.115 148.189C367.471 148.189 367.824 148.262 368.151 148.403C368.478 148.544 368.773 148.751 369.017 149.011C369.261 149.271 369.449 149.578 369.57 149.913C369.691 150.248 369.742 150.604 369.72 150.96V181.17C369.721 181.685 369.568 182.188 369.283 182.616C368.997 183.044 368.591 183.378 368.115 183.575C367.64 183.772 367.117 183.824 366.612 183.723C366.107 183.622 365.644 183.374 365.28 183.01C365.035 182.771 364.841 182.484 364.708 182.168C364.576 181.852 364.509 181.513 364.51 181.17V150.96ZM364.51 202.7C364.51 202.008 364.785 201.344 365.274 200.855C365.764 200.365 366.428 200.09 367.12 200.09C367.463 200.089 367.802 200.156 368.118 200.289C368.434 200.421 368.72 200.615 368.96 200.86C369.202 201.101 369.393 201.388 369.524 201.704C369.654 202.02 369.721 202.358 369.72 202.7V232.91C369.717 233.599 369.443 234.259 368.956 234.746C368.469 235.233 367.809 235.507 367.12 235.51C366.431 235.505 365.772 235.23 365.284 234.743C364.796 234.257 364.518 233.599 364.51 232.91V202.7ZM364.51 254.44C364.488 254.084 364.539 253.728 364.66 253.393C364.781 253.058 364.969 252.751 365.213 252.491C365.457 252.231 365.752 252.024 366.079 251.883C366.406 251.742 366.759 251.669 367.115 251.669C367.471 251.669 367.824 251.742 368.151 251.883C368.478 252.024 368.773 252.231 369.017 252.491C369.261 252.751 369.449 253.058 369.57 253.393C369.691 253.728 369.742 254.084 369.72 254.44V284.65C369.721 285.165 369.568 285.668 369.283 286.096C368.997 286.524 368.591 286.858 368.115 287.055C367.64 287.252 367.117 287.304 366.612 287.203C366.107 287.102 365.644 286.854 365.28 286.49C365.035 286.251 364.841 285.964 364.708 285.648C364.576 285.332 364.509 284.993 364.51 284.65V254.44ZM369.72 388.12C369.72 388.811 369.446 389.473 368.959 389.962C368.472 390.451 367.811 390.727 367.12 390.73C366.429 390.725 365.769 390.448 365.28 389.96C364.792 389.472 364.515 388.811 364.51 388.12V357.91C364.488 357.554 364.539 357.198 364.66 356.863C364.781 356.528 364.969 356.221 365.213 355.961C365.457 355.701 365.752 355.494 366.079 355.353C366.406 355.212 366.759 355.139 367.115 355.139C367.471 355.139 367.824 355.212 368.151 355.353C368.478 355.494 368.773 355.701 369.017 355.961C369.261 356.221 369.449 356.528 369.57 356.863C369.691 357.198 369.742 357.554 369.72 357.91V388.12ZM369.72 336.39C369.721 336.905 369.568 337.408 369.283 337.836C368.997 338.264 368.591 338.598 368.115 338.795C367.64 338.992 367.117 339.044 366.612 338.943C366.107 338.842 365.644 338.594 365.28 338.23L365.2 338.15C364.758 337.67 364.512 337.042 364.51 336.39V306.18C364.51 305.665 364.663 305.161 364.949 304.732C365.235 304.303 365.642 303.969 366.118 303.771C366.594 303.573 367.118 303.521 367.624 303.62C368.129 303.72 368.594 303.967 368.96 304.33C369.413 304.783 369.681 305.39 369.71 306.03C369.715 306.08 369.715 306.13 369.71 306.18L369.72 336.39Z" fill="url(#paint0_linear_4_174)"/>
<path d="M46.11 85H128.61V167.5H46.11V85ZM111.34 102.27H63.34V150.27H111.34V102.27Z" fill="black"/>
<path d="M97.68 115.92H77.05V136.55H97.68V115.92Z" fill="black"/>
<path d="M47.1 271.45H129.6V354H47.1V271.45ZM112.33 288.72H64.33V336.72H112.33V288.72Z" fill="black"/>
<path d="M98.66 302.39H78.03V323.02H98.66V302.39Z" fill="black"/>
<path d="M234.18 85H316.68V167.5H234.18V85ZM299.41 102.27H251.41V150.27H299.41V102.27Z" fill="black"/>
<path d="M285.75 115.92H265.12V136.55H285.75V115.92Z" fill="black"/>
<path d="M65.07 174.64H47.1V192.57H65.07V174.64Z" fill="black"/>
<path d="M65.07 192.57H47.1V210.5H65.07V192.57Z" fill="black"/>
<path d="M65.07 210.5H47.1V228.43H65.07V210.5Z" fill="black"/>
<path d="M101.01 174.64H83.04V192.57H101.01V174.64Z" fill="black"/>
<path d="M101.01 192.57H83.04V210.5H101.01V192.57Z" fill="black"/>
<path d="M101.01 210.5H83.04V228.43H101.01V210.5Z" fill="black"/>
<path d="M118.98 228.43H101.01V246.36H118.98V228.43Z" fill="black"/>
<path d="M136.96 174.64H118.99V192.57H136.96V174.64Z" fill="black"/>
<path d="M136.96 210.5H118.99V228.43H136.96V210.5Z" fill="black"/>
<path d="M154.93 84.98H136.96V102.91H154.93V84.98Z" fill="black"/>
<path d="M154.93 120.84H136.96V138.77H154.93V120.84Z" fill="black"/>
<path d="M154.93 138.77H136.96V156.7H154.93V138.77Z" fill="black"/>
<path d="M154.93 156.7H136.96V174.63H154.93V156.7Z" fill="black"/>
<path d="M172.9 102.91H154.93V120.84H172.9V102.91Z" fill="black"/>
<path d="M172.9 138.77H154.93V156.7H172.9V138.77Z" fill="black"/>
<path d="M172.9 174.64H154.93V192.57H172.9V174.64Z" fill="black"/>
<path d="M172.9 192.57H154.93V210.5H172.9V192.57Z" fill="black"/>
<path d="M172.9 210.5H154.93V228.43H172.9V210.5Z" fill="black"/>
<path d="M190.87 120.84H172.9V138.77H190.87V120.84Z" fill="black"/>
<path d="M190.88 174.64V192.57H172.9V174.64" fill="black"/>
<path d="M190.87 210.5H172.9V228.43H190.87V210.5Z" fill="black"/>
<path d="M190.87 228.43H172.9V246.36H190.87V228.43Z" fill="black"/>
<path d="M208.85 84.98H190.88V102.91H208.85V84.98Z" fill="black"/>
<path d="M208.85 120.84H190.88V138.77H208.85V120.84Z" fill="black"/>
<path d="M208.85 210.5H190.88V228.43H208.85V210.5Z" fill="black"/>
<path d="M226.82 84.98H208.85V102.91H226.82V84.98Z" fill="black"/>
<path d="M226.82 120.84H208.85V138.77H226.82V120.84Z" fill="black"/>
<path d="M226.82 138.77H208.85V156.7H226.82V138.77Z" fill="black"/>
<path d="M226.82 156.7H208.85V174.63H226.82V156.7Z" fill="black"/>
<path d="M226.82 174.64H208.85V192.57H226.82V174.64Z" fill="black"/>
<path d="M226.82 192.57H208.85V210.5H226.82V192.57Z" fill="black"/>
<path d="M226.82 210.5H208.85V228.43H226.82V210.5Z" fill="black"/>
<path d="M226.82 228.43H208.85V246.36H226.82V228.43Z" fill="black"/>
<path d="M244.79 174.64H226.82V192.57H244.79V174.64Z" fill="black"/>
<path d="M244.79 228.43H226.82V246.36H244.79V228.43Z" fill="black"/>
<path d="M244.79 210.5H226.82V228.43H244.79V210.5Z" fill="black"/>
<path d="M262.76 192.57H244.79V210.5H262.76V192.57Z" fill="black"/>
<path d="M298.71 192.57H280.74V210.5H298.71V192.57Z" fill="black"/>
<path d="M298.71 228.43H280.74V246.36H298.71V228.43Z" fill="black"/>
<path d="M316.68 174.64H298.71V192.57H316.68V174.64Z" fill="black"/>
<path d="M316.68 210.5H298.71V228.43H316.68V210.5Z" fill="black"/>
<path d="M65.07 246.36H47.1V264.29H65.07V246.36Z" fill="black"/>
<path d="M101.01 246.36H83.04V264.29H101.01V246.36Z" fill="black"/>
<path d="M118.98 246.36H101.01V264.29H118.98V246.36Z" fill="black"/>
<path d="M136.96 246.36H118.99V264.29H136.96V246.36Z" fill="black"/>
<path d="M154.93 264.29H136.96V282.22H154.93V264.29Z" fill="black"/>
<path d="M154.93 300.16H136.96V318.09H154.93V300.16Z" fill="black"/>
<path d="M154.93 318.09H136.96V336.02H154.93V318.09Z" fill="black"/>
<path d="M154.93 336.02H136.96V353.95H154.93V336.02Z" fill="black"/>
<path d="M172.9 246.36H154.93V264.29H172.9V246.36Z" fill="black"/>
<path d="M172.9 336.02H154.93V353.95H172.9V336.02Z" fill="black"/>
<path d="M190.87 246.36H172.9V264.29H190.87V246.36Z" fill="black"/>
<path d="M190.87 282.23H172.9V300.16H190.87V282.23Z" fill="black"/>
<path d="M190.87 300.16H172.9V318.09H190.87V300.16Z" fill="black"/>
<path d="M190.87 318.09H172.9V336.02H190.87V318.09Z" fill="black"/>
<path d="M208.85 282.23H190.88V300.16H208.85V282.23Z" fill="black"/>
<path d="M226.82 246.36H208.85V264.29H226.82V246.36Z" fill="black"/>
<path d="M226.82 282.23H208.85V300.16H226.82V282.23Z" fill="black"/>
<path d="M226.82 300.16H208.85V318.09H226.82V300.16Z" fill="black"/>
<path d="M226.82 318.09H208.85V336.02H226.82V318.09Z" fill="black"/>
<path d="M244.79 264.29H226.82V282.22H244.79V264.29Z" fill="black"/>
<path d="M244.79 282.23H226.82V300.16H244.79V282.23Z" fill="black"/>
<path d="M244.79 318.09H226.82V336.02H244.79V318.09Z" fill="black"/>
<path d="M262.76 264.29H244.79V282.22H262.76V264.29Z" fill="black"/>
<path d="M262.76 300.16H244.79V318.09H262.76V300.16Z" fill="black"/>
<path d="M262.76 336.02H244.79V353.95H262.76V336.02Z" fill="black"/>
<path d="M280.73 246.36H262.76V264.29H280.73V246.36Z" fill="black"/>
<path d="M280.73 282.23H262.76V300.16H280.73V282.23Z" fill="black"/>
<path d="M280.73 300.16H262.76V318.09H280.73V300.16Z" fill="black"/>
<path d="M280.73 318.09H262.76V336.02H280.73V318.09Z" fill="black"/>
<path d="M298.71 246.36H280.74V264.29H298.71V246.36Z" fill="black"/>
<path d="M298.71 300.16H280.74V318.09H298.71V300.16Z" fill="black"/>
<path d="M298.71 336.02H280.74V353.95H298.71V336.02Z" fill="black"/>
<path d="M316.68 246.36H298.71V264.29H316.68V246.36Z" fill="black"/>
<path d="M316.68 264.29H298.71V282.22H316.68V264.29Z" fill="black"/>
<path d="M316.68 282.23H298.71V300.16H316.68V282.23Z" fill="black"/>
<path d="M548.202 215.769V207.909H585.234V215.769H571.43V253H562.006V215.769H548.202ZM600.866 207.909V253H591.333V207.909H600.866ZM648.495 223.695H638.851C638.675 222.448 638.316 221.339 637.773 220.371C637.229 219.387 636.532 218.551 635.681 217.861C634.83 217.171 633.846 216.643 632.731 216.276C631.63 215.909 630.434 215.725 629.142 215.725C626.808 215.725 624.775 216.305 623.043 217.464C621.311 218.609 619.968 220.283 619.014 222.484C618.06 224.671 617.583 227.328 617.583 230.455C617.583 233.669 618.06 236.37 619.014 238.557C619.983 240.744 621.333 242.395 623.065 243.511C624.797 244.626 626.801 245.184 629.076 245.184C630.353 245.184 631.534 245.015 632.621 244.678C633.721 244.34 634.698 243.848 635.549 243.202C636.4 242.542 637.105 241.742 637.662 240.803C638.235 239.863 638.631 238.792 638.851 237.588L648.495 237.632C648.245 239.702 647.622 241.698 646.623 243.621C645.64 245.529 644.312 247.239 642.638 248.751C640.98 250.248 638.998 251.437 636.694 252.317C634.404 253.183 631.813 253.616 628.922 253.616C624.9 253.616 621.304 252.706 618.133 250.886C614.978 249.066 612.482 246.432 610.648 242.982C608.827 239.533 607.917 235.357 607.917 230.455C607.917 225.537 608.842 221.354 610.692 217.905C612.541 214.455 615.051 211.828 618.221 210.023C621.392 208.203 624.959 207.293 628.922 207.293C631.534 207.293 633.956 207.66 636.187 208.393C638.433 209.127 640.422 210.199 642.154 211.608C643.886 213.002 645.295 214.712 646.381 216.738C647.482 218.763 648.187 221.083 648.495 223.695ZM655.331 253V207.909H664.865V227.79H665.459L681.686 207.909H693.112L676.379 228.099L693.311 253H681.906L669.554 234.462L664.865 240.186V253H655.331ZM698.077 253V207.909H728.461V215.769H707.611V226.513H726.898V234.374H707.611V245.14H728.549V253H698.077ZM734.323 215.769V207.909H771.355V215.769H757.551V253H748.127V215.769H734.323Z" fill="black"/>
<defs>
<linearGradient id="paint0_linear_4_174" x1="979.94" y1="76.3701" x2="-748.54" y2="576.93" gradientUnits="userSpaceOnUse">
<stop stop-color="#FBFF04"/>
<stop offset="0.259469" stop-color="#FDFF81"/>
<stop offset="0.510941" stop-color="#FFD1D1"/>
</linearGradient>
</defs>
</svg>
