<svg width="70" height="80" viewBox="0 0 70 80" fill="none" xmlns="http://www.w3.org/2000/svg">
<path d="M65.5827 18.7654C61.5942 17.8883 57.986 15.7703 55.276 12.7152C52.566 9.66019 50.8934 5.82517 50.4983 1.76051V0H36.6943V54.6958C36.6971 57.1228 35.9362 59.4891 34.5194 61.4596C33.1027 63.43 31.1018 64.9048 28.8003 65.6749C26.4988 66.445 24.0133 66.4715 21.6959 65.7505C19.3785 65.0295 17.3467 63.5977 15.8883 61.6578C14.5817 59.9407 13.7816 57.8922 13.5786 55.7441C13.3755 53.596 13.7775 51.4339 14.7391 49.5023C15.7007 47.5707 17.1836 45.9467 19.0201 44.814C20.8565 43.6812 22.9733 43.0849 25.131 43.0925C26.3243 43.0856 27.5116 43.261 28.652 43.6126V29.6086C27.3249 29.4442 25.9876 29.3774 24.6508 29.4085C19.7267 29.5401 14.9477 31.1047 10.8992 33.9109C6.85068 36.717 3.70834 40.6429 1.85695 45.2076C0.00555652 49.7724 -0.474519 54.778 0.47551 59.6115C1.42554 64.4449 3.76443 68.8965 7.20579 72.421C10.7328 76.0068 15.2461 78.4632 20.1723 79.4782C25.0985 80.4931 30.2153 80.0207 34.8724 78.121C39.5295 76.2212 43.5168 72.9799 46.3276 68.8089C49.1384 64.6379 50.6458 59.7255 50.6583 54.6958V26.6877C56.2258 30.6647 62.9019 32.7921 69.7439 32.7695V19.1655C68.3999 19.1711 67.059 19.037 65.7427 18.7654H65.5827Z" fill="url(#paint0_linear_1_56)"/>
<defs>
<linearGradient id="paint0_linear_1_56" x1="49.1993" y1="-1.71839e-06" x2="12.9961" y2="76.1197" gradientUnits="userSpaceOnUse">
<stop stop-color="#900EB0"/>
<stop offset="1" stop-color="#FF004E"/>
</linearGradient>
</defs>
</svg>
