<svg width="295" height="126" viewBox="0 0 295 126" fill="none" xmlns="http://www.w3.org/2000/svg">
<path d="M13.3022 76.4614C13.3022 80.2033 14.7202 82.0742 17.5562 82.0742C22.7554 82.0742 29.5104 75.5555 37.8213 62.5181C40.3027 58.658 42.7842 54.5814 45.2656 50.2881L52.4736 37.0537C62.7933 17.084 68.7409 5.70085 70.3164 2.9043C71.1042 1.48633 72.2267 0.777344 73.6841 0.777344C75.1414 0.777344 76.3625 0.993978 77.3472 1.42725C78.3319 1.82113 79.1787 2.35286 79.8877 3.02246C81.542 4.59798 81.9556 6.1735 81.1284 7.74902C78.3713 12.8695 75.811 18.6004 73.4478 24.9419L58.6772 66.1221C57.1017 70.2972 55.4671 74.3345 53.7734 78.2339C52.0798 82.0939 50.1694 85.9342 48.0425 89.7549C45.9549 93.5755 43.7098 97.2189 41.3071 100.685C38.9045 104.151 36.3836 107.361 33.7446 110.315C31.1056 113.309 28.4076 115.909 25.6504 118.114C19.7816 122.762 14.1688 125.086 8.81201 125.086C7.78792 125.086 6.78353 124.85 5.79883 124.377C4.81413 123.904 4.22331 123.235 4.02637 122.368C3.82943 121.502 3.96729 120.911 4.43994 120.596C4.9126 120.281 5.54281 119.965 6.33057 119.65C17.2017 115.593 27.4622 104.762 37.1123 87.1553C39.9482 81.9561 42.5675 76.5402 44.9702 70.9077C47.7274 63.6209 49.4998 58.855 50.2876 56.6099L44.3203 65.7085C31.9131 83.63 21.3768 92.5908 12.7114 92.5908C6.84261 92.5908 2.9235 90.0306 0.954102 84.9102C0.363281 83.2952 0.0678711 81.9167 0.0678711 80.7744V78.5293C0.0678711 73.7633 2.84473 64.7041 8.39844 51.3516L20.6875 22.7559C23.0508 17.0446 24.2324 13.5391 24.2324 12.2393C24.2324 10.9001 23.9961 9.89567 23.5234 9.22607C23.0508 8.55648 22.519 8.02474 21.9282 7.63086L20.333 6.44922C19.8604 6.13411 19.624 5.66146 19.624 5.03125C19.624 4.40104 19.9391 3.77083 20.5693 3.14062C21.1995 2.51042 22.0267 1.95898 23.0508 1.48633C25.099 0.580404 27.1077 0.127441 29.0771 0.127441C31.0859 0.127441 32.6221 0.344076 33.6855 0.777344C34.7884 1.17122 35.6943 1.68327 36.4033 2.31348C37.7819 3.61328 38.4712 5.1888 38.4712 7.04004C38.4712 8.85189 38.1167 10.9985 37.4077 13.48C36.7381 15.9614 35.8322 18.6792 34.6899 21.6333C33.5871 24.548 32.307 27.64 30.8496 30.9092L21.8691 50.6426C16.1579 63.2074 13.3022 71.5182 13.3022 75.5752V76.4614ZM146.161 76.5205C146.161 80.3018 147.559 82.1924 150.356 82.1924C152.01 82.1924 153.507 81.8379 154.846 81.1289C156.225 80.4199 157.111 80.0654 157.505 80.0654C158.332 80.0654 158.746 80.4987 158.746 81.3652C158.746 84.8314 156.894 87.7461 153.192 90.1094C150.671 91.7637 148.268 92.5908 145.984 92.5908C143.699 92.5908 141.848 92.3348 140.43 91.8228C139.052 91.2713 137.85 90.4245 136.826 89.2822C134.66 86.9189 133.577 83.3937 133.577 78.7065C133.577 75.0041 134.266 70.7108 135.645 65.8267C137.023 60.9425 138.028 57.4764 138.658 55.4282L132.513 64.7632C119.791 83.3149 109.058 92.5908 100.314 92.5908C94.3659 92.5908 90.4468 90.1094 88.5562 85.1465C87.9654 83.5316 87.67 82.1136 87.67 80.8926V78.6475C87.67 73.6846 90.4468 64.5859 96.0005 51.3516L108.29 22.7559C110.653 17.084 111.835 13.5785 111.835 12.2393C111.835 10.9001 111.598 9.89567 111.126 9.22607C110.653 8.55648 110.121 8.02474 109.53 7.63086L107.935 6.44922C107.462 6.13411 107.226 5.66146 107.226 5.03125C107.226 4.40104 107.541 3.77083 108.171 3.14062C108.802 2.51042 109.629 1.95898 110.653 1.48633C112.701 0.580404 114.71 0.127441 116.679 0.127441C118.688 0.127441 120.224 0.344076 121.288 0.777344C122.391 1.17122 123.296 1.68327 124.005 2.31348C125.384 3.61328 126.073 5.1888 126.073 7.04004C126.073 8.85189 125.719 10.9985 125.01 13.48C124.34 15.9614 123.434 18.6792 122.292 21.6333C121.189 24.548 119.909 27.64 118.452 30.9092L109.471 50.6426C103.76 63.2074 100.904 71.5182 100.904 75.5752V76.4614C100.904 80.2033 102.322 82.0742 105.158 82.0742C110.357 82.0742 117.113 75.5555 125.423 62.5181C127.905 58.658 130.386 54.5814 132.868 50.2881L140.076 37.0537C150.395 17.084 156.343 5.70085 157.919 2.9043C158.706 1.48633 159.829 0.777344 161.286 0.777344C162.744 0.777344 163.965 0.993978 164.949 1.42725C165.934 1.82113 166.781 2.35286 167.49 3.02246C169.144 4.59798 169.558 6.1735 168.731 7.74902C164.989 14.8783 160.439 26.2811 155.083 41.9575C149.135 59.2095 146.161 70.7305 146.161 76.5205ZM249.834 11.2349C248.691 12.062 247.352 12.6922 245.816 13.1255C244.319 13.5194 242.291 13.7163 239.731 13.7163C237.21 13.7163 233.921 13.5391 229.864 13.1846C228.919 15.7448 227.954 18.7383 226.969 22.165L220.174 45.3252C211.785 73.0544 202.844 88.6126 193.351 92C192.682 92.2757 191.815 92.4136 190.752 92.4136C189.727 92.4136 188.881 92.2757 188.211 92C187.581 91.7637 187.049 91.4486 186.616 91.0547C185.749 90.3457 185.316 89.6367 185.316 88.9277C185.316 88.2188 185.493 87.7461 185.848 87.5098L187.384 86.5645C193.056 82.862 198.255 73.015 202.982 57.0234L207.235 42.6074C211.056 29.6488 214.621 19.467 217.929 12.062C214.818 11.7863 212.454 11.6484 210.839 11.6484C206.192 11.6484 202.844 12.2983 200.796 13.5981C198.787 14.8979 197.369 16.3159 196.542 17.8521C195.754 19.3488 195.34 20.3926 195.301 20.9834C195.183 22.0863 194.828 22.7952 194.237 23.1104C193.647 23.3861 192.918 23.5239 192.051 23.5239C191.224 23.5239 190.358 23.2285 189.452 22.6377C188.546 22.0075 187.797 21.2197 187.207 20.2744C185.946 18.3444 185.454 16.1781 185.73 13.7754C186.005 11.3333 186.793 9.24577 188.093 7.5127C189.432 5.74023 191.008 4.30257 192.819 3.19971C196.167 1.15153 199.693 0.127441 203.395 0.127441C207.137 0.127441 210.662 0.324382 213.971 0.718262C217.319 1.07275 220.647 1.48633 223.956 1.95898C232.739 3.14062 238.332 3.73145 240.735 3.73145C243.138 3.73145 244.91 3.59359 246.052 3.31787C247.234 3.04215 248.238 2.62858 249.066 2.07715C249.893 1.52572 250.464 1.17122 250.779 1.01367C251.133 0.816732 251.685 0.718262 252.433 0.718262C253.615 0.718262 254.127 1.62419 253.969 3.43604C253.812 5.2085 253.379 6.74463 252.67 8.04443C251.961 9.30485 251.015 10.3683 249.834 11.2349ZM251.353 86.5645C258.167 81.5622 265.041 68.6823 271.973 47.9248C275.99 35.8327 278.787 24.9222 280.362 15.1934C280.796 12.4756 281.012 10.388 281.012 8.93066C279.397 9.00944 277.901 9.44271 276.522 10.2305L272.091 12.771C270.87 13.4406 269.235 12.9089 267.187 11.1758C265.178 9.44271 264.253 7.98535 264.41 6.80371C264.607 5.58268 265.277 4.59798 266.419 3.84961C267.601 3.06185 268.96 2.39225 270.496 1.84082C273.726 0.698568 276.424 0.127441 278.59 0.127441C280.796 0.127441 282.726 0.304688 284.38 0.65918C286.074 0.974284 287.61 1.52572 288.988 2.31348C292.14 4.12533 293.754 6.72493 293.833 10.1123C293.991 15.9811 292.002 25.9463 287.866 40.0078C281.327 62.262 273.647 77.8991 264.824 86.9189C262.421 89.4004 259.92 91.0941 257.32 92C256.612 92.2757 255.883 92.4136 255.134 92.4136C254.425 92.4136 253.776 92.2757 253.185 92C252.594 91.7637 252.102 91.4486 251.708 91.0547C250.881 90.3063 250.467 89.4792 250.467 88.5732C250.467 87.6673 250.762 86.9977 251.353 86.5645Z" fill="#060346"/>
</svg>
